<svg width="1116" height="541" viewBox="0 0 1116 541" fill="none" xmlns="http://www.w3.org/2000/svg">
<rect width="1116" height="541" fill="url(#paint0_radial_1734_24)"/>
<path d="M244.414 443V422H257.764V424.58H247.594V431.12H256.864V433.64H247.594V440.42H257.764V443H244.414ZM266.473 443.36C265.213 443.36 264.173 443.15 263.353 442.73C262.533 442.31 261.923 441.76 261.523 441.08C261.123 440.38 260.923 439.62 260.923 438.8C260.923 437.36 261.483 436.22 262.603 435.38C263.723 434.54 265.323 434.12 267.403 434.12H271.303V433.85C271.303 432.69 270.983 431.82 270.343 431.24C269.723 430.66 268.913 430.37 267.913 430.37C267.033 430.37 266.263 430.59 265.603 431.03C264.963 431.45 264.573 432.08 264.433 432.92H261.253C261.353 431.84 261.713 430.92 262.333 430.16C262.973 429.38 263.773 428.79 264.733 428.39C265.713 427.97 266.783 427.76 267.943 427.76C270.023 427.76 271.633 428.31 272.773 429.41C273.913 430.49 274.483 431.97 274.483 433.85V443H271.723L271.453 440.45C271.033 441.27 270.423 441.96 269.623 442.52C268.823 443.08 267.773 443.36 266.473 443.36ZM267.103 440.78C267.963 440.78 268.683 440.58 269.263 440.18C269.863 439.76 270.323 439.21 270.643 438.53C270.983 437.85 271.193 437.1 271.273 436.28H267.733C266.473 436.28 265.573 436.5 265.033 436.94C264.513 437.38 264.253 437.93 264.253 438.59C264.253 439.27 264.503 439.81 265.003 440.21C265.523 440.59 266.223 440.78 267.103 440.78ZM284.131 443.36C282.251 443.36 280.701 442.9 279.481 441.98C278.261 441.06 277.561 439.84 277.381 438.32H280.591C280.751 439 281.131 439.59 281.731 440.09C282.331 440.57 283.121 440.81 284.101 440.81C285.061 440.81 285.761 440.61 286.201 440.21C286.641 439.81 286.861 439.35 286.861 438.83C286.861 438.07 286.551 437.56 285.931 437.3C285.331 437.02 284.491 436.77 283.411 436.55C282.571 436.37 281.731 436.13 280.891 435.83C280.071 435.53 279.381 435.11 278.821 434.57C278.281 434.01 278.011 433.26 278.011 432.32C278.011 431.02 278.511 429.94 279.511 429.08C280.511 428.2 281.911 427.76 283.711 427.76C285.371 427.76 286.711 428.16 287.731 428.96C288.771 429.76 289.381 430.89 289.561 432.35H286.501C286.401 431.71 286.101 431.21 285.601 430.85C285.121 430.49 284.471 430.31 283.651 430.31C282.851 430.31 282.231 430.48 281.791 430.82C281.351 431.14 281.131 431.56 281.131 432.08C281.131 432.6 281.431 433.01 282.031 433.31C282.651 433.61 283.461 433.88 284.461 434.12C285.461 434.34 286.381 434.6 287.221 434.9C288.081 435.18 288.771 435.6 289.291 436.16C289.811 436.72 290.071 437.54 290.071 438.62C290.091 439.98 289.561 441.11 288.481 442.01C287.421 442.91 285.971 443.36 284.131 443.36ZM294.55 449.6L298.12 441.77H297.25L291.37 428.12H294.82L299.38 439.13L304.15 428.12H307.51L297.91 449.6H294.55ZM323.623 443.36C321.743 443.36 320.193 442.9 318.973 441.98C317.753 441.06 317.053 439.84 316.873 438.32H320.083C320.243 439 320.623 439.59 321.223 440.09C321.823 440.57 322.613 440.81 323.593 440.81C324.553 440.81 325.253 440.61 325.693 440.21C326.133 439.81 326.353 439.35 326.353 438.83C326.353 438.07 326.043 437.56 325.423 437.3C324.823 437.02 323.983 436.77 322.903 436.55C322.063 436.37 321.223 436.13 320.383 435.83C319.563 435.53 318.873 435.11 318.313 434.57C317.773 434.01 317.503 433.26 317.503 432.32C317.503 431.02 318.003 429.94 319.003 429.08C320.003 428.2 321.403 427.76 323.203 427.76C324.863 427.76 326.203 428.16 327.223 428.96C328.263 429.76 328.873 430.89 329.053 432.35H325.993C325.893 431.71 325.593 431.21 325.093 430.85C324.613 430.49 323.963 430.31 323.143 430.31C322.343 430.31 321.723 430.48 321.283 430.82C320.843 431.14 320.623 431.56 320.623 432.08C320.623 432.6 320.923 433.01 321.523 433.31C322.143 433.61 322.953 433.88 323.953 434.12C324.953 434.34 325.873 434.6 326.713 434.9C327.573 435.18 328.263 435.6 328.783 436.16C329.303 436.72 329.563 437.54 329.563 438.62C329.583 439.98 329.053 441.11 327.973 442.01C326.913 442.91 325.463 443.36 323.623 443.36ZM339.994 443.36C338.574 443.36 337.294 443.04 336.154 442.4C335.034 441.74 334.144 440.83 333.484 439.67C332.824 438.49 332.494 437.12 332.494 435.56C332.494 434 332.824 432.64 333.484 431.48C334.164 430.3 335.074 429.39 336.214 428.75C337.354 428.09 338.624 427.76 340.024 427.76C341.444 427.76 342.714 428.09 343.834 428.75C344.974 429.39 345.874 430.3 346.534 431.48C347.214 432.64 347.554 434 347.554 435.56C347.554 437.12 347.214 438.49 346.534 439.67C345.874 440.83 344.974 441.74 343.834 442.4C342.694 443.04 341.414 443.36 339.994 443.36ZM339.994 440.63C340.754 440.63 341.454 440.44 342.094 440.06C342.754 439.68 343.284 439.12 343.684 438.38C344.084 437.62 344.284 436.68 344.284 435.56C344.284 434.44 344.084 433.51 343.684 432.77C343.304 432.01 342.784 431.44 342.124 431.06C341.484 430.68 340.784 430.49 340.024 430.49C339.264 430.49 338.554 430.68 337.894 431.06C337.254 431.44 336.734 432.01 336.334 432.77C335.934 433.51 335.734 434.44 335.734 435.56C335.734 436.68 335.934 437.62 336.334 438.38C336.734 439.12 337.254 439.68 337.894 440.06C338.534 440.44 339.234 440.63 339.994 440.63ZM350.993 443V421.4H354.173V443H350.993ZM363.69 443.36C361.89 443.36 360.47 442.8 359.43 441.68C358.41 440.56 357.9 438.89 357.9 436.67V428.12H361.08V436.34C361.08 439.22 362.26 440.66 364.62 440.66C365.8 440.66 366.77 440.24 367.53 439.4C368.29 438.56 368.67 437.36 368.67 435.8V428.12H371.85V443H369.03L368.79 440.39C368.33 441.31 367.65 442.04 366.75 442.58C365.87 443.1 364.85 443.36 363.69 443.36ZM382.136 443C380.676 443 379.516 442.65 378.656 441.95C377.796 441.23 377.366 439.96 377.366 438.14V430.79H374.816V428.12H377.366L377.756 424.34H380.546V428.12H384.746V430.79H380.546V438.14C380.546 438.96 380.716 439.53 381.056 439.85C381.416 440.15 382.026 440.3 382.886 440.3H384.596V443H382.136ZM389.825 425.3C389.225 425.3 388.725 425.12 388.325 424.76C387.945 424.38 387.755 423.91 387.755 423.35C387.755 422.79 387.945 422.33 388.325 421.97C388.725 421.59 389.225 421.4 389.825 421.4C390.425 421.4 390.915 421.59 391.295 421.97C391.695 422.33 391.895 422.79 391.895 423.35C391.895 423.91 391.695 424.38 391.295 424.76C390.915 425.12 390.425 425.3 389.825 425.3ZM388.235 443V428.12H391.415V443H388.235ZM402.573 443.36C401.153 443.36 399.873 443.04 398.733 442.4C397.613 441.74 396.723 440.83 396.063 439.67C395.403 438.49 395.073 437.12 395.073 435.56C395.073 434 395.403 432.64 396.063 431.48C396.743 430.3 397.653 429.39 398.793 428.75C399.933 428.09 401.203 427.76 402.603 427.76C404.023 427.76 405.293 428.09 406.413 428.75C407.553 429.39 408.453 430.3 409.113 431.48C409.793 432.64 410.133 434 410.133 435.56C410.133 437.12 409.793 438.49 409.113 439.67C408.453 440.83 407.553 441.74 406.413 442.4C405.273 443.04 403.993 443.36 402.573 443.36ZM402.573 440.63C403.333 440.63 404.033 440.44 404.673 440.06C405.333 439.68 405.863 439.12 406.263 438.38C406.663 437.62 406.863 436.68 406.863 435.56C406.863 434.44 406.663 433.51 406.263 432.77C405.883 432.01 405.363 431.44 404.703 431.06C404.063 430.68 403.363 430.49 402.603 430.49C401.843 430.49 401.133 430.68 400.473 431.06C399.833 431.44 399.313 432.01 398.913 432.77C398.513 433.51 398.313 434.44 398.313 435.56C398.313 436.68 398.513 437.62 398.913 438.38C399.313 439.12 399.833 439.68 400.473 440.06C401.113 440.44 401.813 440.63 402.573 440.63ZM413.572 443V428.12H416.392L416.632 430.73C417.092 429.81 417.762 429.09 418.642 428.57C419.542 428.03 420.572 427.76 421.732 427.76C423.532 427.76 424.942 428.32 425.962 429.44C427.002 430.56 427.522 432.23 427.522 434.45V443H424.372V434.78C424.372 431.9 423.192 430.46 420.832 430.46C419.652 430.46 418.672 430.88 417.892 431.72C417.132 432.56 416.752 433.76 416.752 435.32V443H413.572ZM445.065 443C443.605 443 442.445 442.65 441.585 441.95C440.725 441.23 440.295 439.96 440.295 438.14V430.79H437.745V428.12H440.295L440.685 424.34H443.475V428.12H447.675V430.79H443.475V438.14C443.475 438.96 443.645 439.53 443.985 439.85C444.345 440.15 444.955 440.3 445.815 440.3H447.525V443H445.065ZM457.533 443.36C456.113 443.36 454.833 443.04 453.693 442.4C452.573 441.74 451.683 440.83 451.023 439.67C450.363 438.49 450.033 437.12 450.033 435.56C450.033 434 450.363 432.64 451.023 431.48C451.703 430.3 452.613 429.39 453.753 428.75C454.893 428.09 456.163 427.76 457.563 427.76C458.983 427.76 460.253 428.09 461.373 428.75C462.513 429.39 463.413 430.3 464.073 431.48C464.753 432.64 465.093 434 465.093 435.56C465.093 437.12 464.753 438.49 464.073 439.67C463.413 440.83 462.513 441.74 461.373 442.4C460.233 443.04 458.953 443.36 457.533 443.36ZM457.533 440.63C458.293 440.63 458.993 440.44 459.633 440.06C460.293 439.68 460.823 439.12 461.223 438.38C461.623 437.62 461.823 436.68 461.823 435.56C461.823 434.44 461.623 433.51 461.223 432.77C460.843 432.01 460.323 431.44 459.663 431.06C459.023 430.68 458.323 430.49 457.563 430.49C456.803 430.49 456.093 430.68 455.433 431.06C454.793 431.44 454.273 432.01 453.873 432.77C453.473 433.51 453.273 434.44 453.273 435.56C453.273 436.68 453.473 437.62 453.873 438.38C454.273 439.12 454.793 439.68 455.433 440.06C456.073 440.44 456.773 440.63 457.533 440.63ZM482.031 443.36C480.151 443.36 478.601 442.9 477.381 441.98C476.161 441.06 475.461 439.84 475.281 438.32H478.491C478.651 439 479.031 439.59 479.631 440.09C480.231 440.57 481.021 440.81 482.001 440.81C482.961 440.81 483.661 440.61 484.101 440.21C484.541 439.81 484.761 439.35 484.761 438.83C484.761 438.07 484.451 437.56 483.831 437.3C483.231 437.02 482.391 436.77 481.311 436.55C480.471 436.37 479.631 436.13 478.791 435.83C477.971 435.53 477.281 435.11 476.721 434.57C476.181 434.01 475.911 433.26 475.911 432.32C475.911 431.02 476.411 429.94 477.411 429.08C478.411 428.2 479.811 427.76 481.611 427.76C483.271 427.76 484.611 428.16 485.631 428.96C486.671 429.76 487.281 430.89 487.461 432.35H484.401C484.301 431.71 484.001 431.21 483.501 430.85C483.021 430.49 482.371 430.31 481.551 430.31C480.751 430.31 480.131 430.48 479.691 430.82C479.251 431.14 479.031 431.56 479.031 432.08C479.031 432.6 479.331 433.01 479.931 433.31C480.551 433.61 481.361 433.88 482.361 434.12C483.361 434.34 484.281 434.6 485.121 434.9C485.981 435.18 486.671 435.6 487.191 436.16C487.711 436.72 487.971 437.54 487.971 438.62C487.991 439.98 487.461 441.11 486.381 442.01C485.321 442.91 483.871 443.36 482.031 443.36ZM497.126 443C495.666 443 494.506 442.65 493.646 441.95C492.786 441.23 492.356 439.96 492.356 438.14V430.79H489.806V428.12H492.356L492.746 424.34H495.536V428.12H499.736V430.79H495.536V438.14C495.536 438.96 495.706 439.53 496.046 439.85C496.406 440.15 497.016 440.3 497.876 440.3H499.586V443H497.126ZM509.594 443.36C508.174 443.36 506.894 443.04 505.754 442.4C504.634 441.74 503.744 440.83 503.084 439.67C502.424 438.49 502.094 437.12 502.094 435.56C502.094 434 502.424 432.64 503.084 431.48C503.764 430.3 504.674 429.39 505.814 428.75C506.954 428.09 508.224 427.76 509.624 427.76C511.044 427.76 512.314 428.09 513.434 428.75C514.574 429.39 515.474 430.3 516.134 431.48C516.814 432.64 517.154 434 517.154 435.56C517.154 437.12 516.814 438.49 516.134 439.67C515.474 440.83 514.574 441.74 513.434 442.4C512.294 443.04 511.014 443.36 509.594 443.36ZM509.594 440.63C510.354 440.63 511.054 440.44 511.694 440.06C512.354 439.68 512.884 439.12 513.284 438.38C513.684 437.62 513.884 436.68 513.884 435.56C513.884 434.44 513.684 433.51 513.284 432.77C512.904 432.01 512.384 431.44 511.724 431.06C511.084 430.68 510.384 430.49 509.624 430.49C508.864 430.49 508.154 430.68 507.494 431.06C506.854 431.44 506.334 432.01 505.934 432.77C505.534 433.51 505.334 434.44 505.334 435.56C505.334 436.68 505.534 437.62 505.934 438.38C506.334 439.12 506.854 439.68 507.494 440.06C508.134 440.44 508.834 440.63 509.594 440.63ZM520.593 443V428.12H523.443L523.713 430.94C524.233 429.96 524.953 429.19 525.873 428.63C526.813 428.05 527.943 427.76 529.263 427.76V431.09H528.393C527.513 431.09 526.723 431.24 526.023 431.54C525.343 431.82 524.793 432.31 524.373 433.01C523.973 433.69 523.773 434.64 523.773 435.86V443H520.593ZM538.539 443.36C537.079 443.36 535.779 443.04 534.639 442.4C533.519 441.74 532.639 440.83 531.999 439.67C531.359 438.51 531.039 437.16 531.039 435.62C531.039 434.06 531.349 432.69 531.969 431.51C532.609 430.33 533.489 429.41 534.609 428.75C535.749 428.09 537.069 427.76 538.569 427.76C540.029 427.76 541.299 428.09 542.379 428.75C543.459 429.39 544.299 430.25 544.899 431.33C545.499 432.41 545.799 433.6 545.799 434.9C545.799 435.1 545.789 435.32 545.769 435.56C545.769 435.78 545.759 436.03 545.739 436.31H534.159C534.259 437.75 534.729 438.85 535.569 439.61C536.429 440.35 537.419 440.72 538.539 440.72C539.439 440.72 540.189 440.52 540.789 440.12C541.409 439.7 541.869 439.14 542.169 438.44H545.349C544.949 439.84 544.149 441.01 542.949 441.95C541.769 442.89 540.299 443.36 538.539 443.36ZM538.539 430.37C537.479 430.37 536.539 430.69 535.719 431.33C534.899 431.95 534.399 432.89 534.219 434.15H542.619C542.559 432.99 542.149 432.07 541.389 431.39C540.629 430.71 539.679 430.37 538.539 430.37ZM557.407 443V430.79H555.277V428.12H557.407V425.96C557.407 424.34 557.807 423.18 558.607 422.48C559.427 421.76 560.577 421.4 562.057 421.4H563.617V424.1H562.537C561.837 424.1 561.337 424.25 561.037 424.55C560.737 424.83 560.587 425.31 560.587 425.99V428.12H570.007V443H566.827V430.79H560.587V443H557.407ZM568.447 425.63C567.847 425.63 567.347 425.45 566.947 425.09C566.567 424.71 566.377 424.23 566.377 423.65C566.377 423.09 566.567 422.63 566.947 422.27C567.347 421.91 567.847 421.73 568.447 421.73C569.047 421.73 569.537 421.91 569.917 422.27C570.317 422.63 570.517 423.09 570.517 423.65C570.517 424.23 570.317 424.71 569.917 425.09C569.537 425.45 569.047 425.63 568.447 425.63ZM574.236 443V421.4H577.416V443H574.236ZM588.403 443.36C586.943 443.36 585.643 443.04 584.503 442.4C583.383 441.74 582.503 440.83 581.863 439.67C581.223 438.51 580.903 437.16 580.903 435.62C580.903 434.06 581.213 432.69 581.833 431.51C582.473 430.33 583.353 429.41 584.473 428.75C585.613 428.09 586.933 427.76 588.433 427.76C589.893 427.76 591.163 428.09 592.243 428.75C593.323 429.39 594.163 430.25 594.763 431.33C595.363 432.41 595.663 433.6 595.663 434.9C595.663 435.1 595.653 435.32 595.633 435.56C595.633 435.78 595.623 436.03 595.603 436.31H584.023C584.123 437.75 584.593 438.85 585.433 439.61C586.293 440.35 587.283 440.72 588.403 440.72C589.303 440.72 590.053 440.52 590.653 440.12C591.273 439.7 591.733 439.14 592.033 438.44H595.213C594.813 439.84 594.013 441.01 592.813 441.95C591.633 442.89 590.163 443.36 588.403 443.36ZM588.403 430.37C587.343 430.37 586.403 430.69 585.583 431.33C584.763 431.95 584.263 432.89 584.083 434.15H592.483C592.423 432.99 592.013 432.07 591.253 431.39C590.493 430.71 589.543 430.37 588.403 430.37ZM604.902 443.36C603.022 443.36 601.472 442.9 600.252 441.98C599.032 441.06 598.332 439.84 598.152 438.32H601.362C601.522 439 601.902 439.59 602.502 440.09C603.102 440.57 603.892 440.81 604.872 440.81C605.832 440.81 606.532 440.61 606.972 440.21C607.412 439.81 607.632 439.35 607.632 438.83C607.632 438.07 607.322 437.56 606.702 437.3C606.102 437.02 605.262 436.77 604.182 436.55C603.342 436.37 602.502 436.13 601.662 435.83C600.842 435.53 600.152 435.11 599.592 434.57C599.052 434.01 598.782 433.26 598.782 432.32C598.782 431.02 599.282 429.94 600.282 429.08C601.282 428.2 602.682 427.76 604.482 427.76C606.142 427.76 607.482 428.16 608.502 428.96C609.542 429.76 610.152 430.89 610.332 432.35H607.272C607.172 431.71 606.872 431.21 606.372 430.85C605.892 430.49 605.242 430.31 604.422 430.31C603.622 430.31 603.002 430.48 602.562 430.82C602.122 431.14 601.902 431.56 601.902 432.08C601.902 432.6 602.202 433.01 602.802 433.31C603.422 433.61 604.232 433.88 605.232 434.12C606.232 434.34 607.152 434.6 607.992 434.9C608.852 435.18 609.542 435.6 610.062 436.16C610.582 436.72 610.842 437.54 610.842 438.62C610.862 439.98 610.332 441.11 609.252 442.01C608.192 442.91 606.742 443.36 604.902 443.36ZM623.672 425.3C623.072 425.3 622.572 425.12 622.172 424.76C621.792 424.38 621.602 423.91 621.602 423.35C621.602 422.79 621.792 422.33 622.172 421.97C622.572 421.59 623.072 421.4 623.672 421.4C624.272 421.4 624.762 421.59 625.142 421.97C625.542 422.33 625.742 422.79 625.742 423.35C625.742 423.91 625.542 424.38 625.142 424.76C624.762 425.12 624.272 425.3 623.672 425.3ZM622.082 443V428.12H625.262V443H622.082ZM629.46 443V428.12H632.28L632.52 430.73C632.98 429.81 633.65 429.09 634.53 428.57C635.43 428.03 636.46 427.76 637.62 427.76C639.42 427.76 640.83 428.32 641.85 429.44C642.89 430.56 643.41 432.23 643.41 434.45V443H640.26V434.78C640.26 431.9 639.08 430.46 636.72 430.46C635.54 430.46 634.56 430.88 633.78 431.72C633.02 432.56 632.64 433.76 632.64 435.32V443H629.46ZM656.454 449.6L660.024 441.77H659.154L653.274 428.12H656.724L661.284 439.13L666.054 428.12H669.414L659.814 449.6H656.454ZM677.641 443.36C676.221 443.36 674.941 443.04 673.801 442.4C672.681 441.74 671.791 440.83 671.131 439.67C670.471 438.49 670.141 437.12 670.141 435.56C670.141 434 670.471 432.64 671.131 431.48C671.811 430.3 672.721 429.39 673.861 428.75C675.001 428.09 676.271 427.76 677.671 427.76C679.091 427.76 680.361 428.09 681.481 428.75C682.621 429.39 683.521 430.3 684.181 431.48C684.861 432.64 685.201 434 685.201 435.56C685.201 437.12 684.861 438.49 684.181 439.67C683.521 440.83 682.621 441.74 681.481 442.4C680.341 443.04 679.061 443.36 677.641 443.36ZM677.641 440.63C678.401 440.63 679.101 440.44 679.741 440.06C680.401 439.68 680.931 439.12 681.331 438.38C681.731 437.62 681.931 436.68 681.931 435.56C681.931 434.44 681.731 433.51 681.331 432.77C680.951 432.01 680.431 431.44 679.771 431.06C679.131 430.68 678.431 430.49 677.671 430.49C676.911 430.49 676.201 430.68 675.541 431.06C674.901 431.44 674.381 432.01 673.981 432.77C673.581 433.51 673.381 434.44 673.381 435.56C673.381 436.68 673.581 437.62 673.981 438.38C674.381 439.12 674.901 439.68 675.541 440.06C676.181 440.44 676.881 440.63 677.641 440.63ZM694.13 443.36C692.33 443.36 690.91 442.8 689.87 441.68C688.85 440.56 688.34 438.89 688.34 436.67V428.12H691.52V436.34C691.52 439.22 692.7 440.66 695.06 440.66C696.24 440.66 697.21 440.24 697.97 439.4C698.73 438.56 699.11 437.36 699.11 435.8V428.12H702.29V443H699.47L699.23 440.39C698.77 441.31 698.09 442.04 697.19 442.58C696.31 443.1 695.29 443.36 694.13 443.36ZM706.335 443V428.12H709.185L709.455 430.94C709.975 429.96 710.695 429.19 711.615 428.63C712.555 428.05 713.685 427.76 715.005 427.76V431.09H714.135C713.255 431.09 712.465 431.24 711.765 431.54C711.085 431.82 710.535 432.31 710.115 433.01C709.715 433.69 709.515 434.64 709.515 435.86V443H706.335ZM725.41 443V422H728.59L739.12 437.81V422H742.3V443H739.12L728.59 427.19V443H725.41ZM751.933 443.36C750.133 443.36 748.713 442.8 747.673 441.68C746.653 440.56 746.143 438.89 746.143 436.67V428.12H749.323V436.34C749.323 439.22 750.503 440.66 752.863 440.66C754.043 440.66 755.013 440.24 755.773 439.4C756.533 438.56 756.913 437.36 756.913 435.8V428.12H760.093V443H757.273L757.033 440.39C756.573 441.31 755.893 442.04 754.993 442.58C754.113 443.1 753.093 443.36 751.933 443.36ZM762.698 443L767.978 435.56L762.698 428.12H766.088L770.078 433.82L774.038 428.12H777.458L772.178 435.56L777.458 443H774.038L770.078 437.3L766.088 443H762.698ZM786.286 443C784.826 443 783.666 442.65 782.806 441.95C781.946 441.23 781.516 439.96 781.516 438.14V430.79H778.966V428.12H781.516L781.906 424.34H784.696V428.12H788.896V430.79H784.696V438.14C784.696 438.96 784.866 439.53 785.206 439.85C785.566 440.15 786.176 440.3 787.036 440.3H788.746V443H786.286ZM804.774 443.36C803.514 443.36 802.474 443.15 801.654 442.73C800.834 442.31 800.224 441.76 799.824 441.08C799.424 440.38 799.224 439.62 799.224 438.8C799.224 437.36 799.784 436.22 800.904 435.38C802.024 434.54 803.624 434.12 805.704 434.12H809.604V433.85C809.604 432.69 809.284 431.82 808.644 431.24C808.024 430.66 807.214 430.37 806.214 430.37C805.334 430.37 804.564 430.59 803.904 431.03C803.264 431.45 802.874 432.08 802.734 432.92H799.554C799.654 431.84 800.014 430.92 800.634 430.16C801.274 429.38 802.074 428.79 803.034 428.39C804.014 427.97 805.084 427.76 806.244 427.76C808.324 427.76 809.934 428.31 811.074 429.41C812.214 430.49 812.784 431.97 812.784 433.85V443H810.024L809.754 440.45C809.334 441.27 808.724 441.96 807.924 442.52C807.124 443.08 806.074 443.36 804.774 443.36ZM805.404 440.78C806.264 440.78 806.984 440.58 807.564 440.18C808.164 439.76 808.624 439.21 808.944 438.53C809.284 437.85 809.494 437.1 809.574 436.28H806.034C804.774 436.28 803.874 436.5 803.334 436.94C802.814 437.38 802.554 437.93 802.554 438.59C802.554 439.27 802.804 439.81 803.304 440.21C803.824 440.59 804.524 440.78 805.404 440.78ZM816.491 449.6V428.12H819.341L819.671 430.43C820.151 429.73 820.811 429.11 821.651 428.57C822.491 428.03 823.571 427.76 824.891 427.76C826.331 427.76 827.601 428.1 828.701 428.78C829.801 429.46 830.661 430.39 831.281 431.57C831.921 432.75 832.241 434.09 832.241 435.59C832.241 437.09 831.921 438.43 831.281 439.61C830.661 440.77 829.801 441.69 828.701 442.37C827.601 443.03 826.321 443.36 824.861 443.36C823.701 443.36 822.671 443.13 821.771 442.67C820.891 442.21 820.191 441.56 819.671 440.72V449.6H816.491ZM824.321 440.6C825.681 440.6 826.801 440.14 827.681 439.22C828.561 438.28 829.001 437.06 829.001 435.56C829.001 434.58 828.801 433.71 828.401 432.95C828.001 432.19 827.451 431.6 826.751 431.18C826.051 430.74 825.241 430.52 824.321 430.52C822.961 430.52 821.841 430.99 820.961 431.93C820.101 432.87 819.671 434.08 819.671 435.56C819.671 437.06 820.101 438.28 820.961 439.22C821.841 440.14 822.961 440.6 824.321 440.6ZM835.681 449.6V428.12H838.531L838.861 430.43C839.341 429.73 840.001 429.11 840.841 428.57C841.681 428.03 842.761 427.76 844.081 427.76C845.521 427.76 846.791 428.1 847.891 428.78C848.991 429.46 849.851 430.39 850.471 431.57C851.111 432.75 851.431 434.09 851.431 435.59C851.431 437.09 851.111 438.43 850.471 439.61C849.851 440.77 848.991 441.69 847.891 442.37C846.791 443.03 845.511 443.36 844.051 443.36C842.891 443.36 841.861 443.13 840.961 442.67C840.081 442.21 839.381 441.56 838.861 440.72V449.6H835.681ZM843.511 440.6C844.871 440.6 845.991 440.14 846.871 439.22C847.751 438.28 848.191 437.06 848.191 435.56C848.191 434.58 847.991 433.71 847.591 432.95C847.191 432.19 846.641 431.6 845.941 431.18C845.241 430.74 844.431 430.52 843.511 430.52C842.151 430.52 841.031 430.99 840.151 431.93C839.291 432.87 838.861 434.08 838.861 435.56C838.861 437.06 839.291 438.28 840.151 439.22C841.031 440.14 842.151 440.6 843.511 440.6ZM860.81 443.36C858.93 443.36 857.38 442.9 856.16 441.98C854.94 441.06 854.24 439.84 854.06 438.32H857.27C857.43 439 857.81 439.59 858.41 440.09C859.01 440.57 859.8 440.81 860.78 440.81C861.74 440.81 862.44 440.61 862.88 440.21C863.32 439.81 863.54 439.35 863.54 438.83C863.54 438.07 863.23 437.56 862.61 437.3C862.01 437.02 861.17 436.77 860.09 436.55C859.25 436.37 858.41 436.13 857.57 435.83C856.75 435.53 856.06 435.11 855.5 434.57C854.96 434.01 854.69 433.26 854.69 432.32C854.69 431.02 855.19 429.94 856.19 429.08C857.19 428.2 858.59 427.76 860.39 427.76C862.05 427.76 863.39 428.16 864.41 428.96C865.45 429.76 866.06 430.89 866.24 432.35H863.18C863.08 431.71 862.78 431.21 862.28 430.85C861.8 430.49 861.15 430.31 860.33 430.31C859.53 430.31 858.91 430.48 858.47 430.82C858.03 431.14 857.81 431.56 857.81 432.08C857.81 432.6 858.11 433.01 858.71 433.31C859.33 433.61 860.14 433.88 861.14 434.12C862.14 434.34 863.06 434.6 863.9 434.9C864.76 435.18 865.45 435.6 865.97 436.16C866.49 436.72 866.75 437.54 866.75 438.62C866.77 439.98 866.24 441.11 865.16 442.01C864.1 442.91 862.65 443.36 860.81 443.36ZM871.482 443.18C870.882 443.18 870.382 442.99 869.982 442.61C869.602 442.21 869.412 441.74 869.412 441.2C869.412 440.64 869.602 440.17 869.982 439.79C870.382 439.39 870.882 439.19 871.482 439.19C872.082 439.19 872.572 439.39 872.952 439.79C873.332 440.17 873.522 440.64 873.522 441.2C873.522 441.74 873.332 442.21 872.952 442.61C872.572 442.99 872.082 443.18 871.482 443.18Z" fill="#D5E8FF" fill-opacity="0.87"/>
<path d="M475.811 213.254C478.104 215.547 481.214 216.836 484.458 216.836H631.204C637.507 216.836 643.433 219.611 647.236 222.95C652.348 227.438 655.662 233.944 655.662 241.293V277.98C655.662 284.466 653.085 290.687 648.498 295.274C643.911 299.861 637.69 302.438 631.204 302.438H484.458C477.971 302.438 471.75 299.861 467.163 295.274C462.577 290.687 460 284.466 460 277.98V234.59C461.993 237.342 465.102 242.307 472.229 243.606V277.98C472.229 281.223 473.517 284.334 475.811 286.627C478.104 288.92 481.214 290.209 484.458 290.209H631.204C634.447 290.209 637.558 288.92 639.851 286.627C642.144 284.334 643.433 281.223 643.433 277.98V241.293C643.433 238.05 642.144 234.94 639.851 232.646C637.558 230.353 634.447 229.064 631.204 229.064H484.458C476.989 229.064 473.192 227.187 468.438 222.95C463.684 218.713 460 211.956 460 204.607V167.92C460 161.434 462.577 155.213 467.163 150.626L539.91 101.181C550.726 93.829 564.935 93.829 575.752 101.181L648.498 150.626C653.085 155.213 655.662 161.434 655.662 167.92V211.303C651.958 206.158 648.992 204.085 643.433 202.192V167.92C643.433 164.677 642.144 161.566 639.851 159.273L575.618 116.088C564.862 108.856 550.799 108.856 540.043 116.088L475.811 159.273C473.517 161.566 472.229 164.677 472.229 167.92V204.607C472.229 207.85 473.517 210.96 475.811 213.254Z" fill="#00DC82"/>
<path d="M515.03 277.98C525.161 277.98 533.373 269.767 533.373 259.637C533.373 249.506 525.161 241.293 515.03 241.293C504.899 241.293 496.687 249.506 496.687 259.637C496.687 269.767 504.899 277.98 515.03 277.98Z" fill="#108775"/>
<path d="M515.03 204.607C525.161 204.607 533.373 196.394 533.373 186.264C533.373 176.133 525.161 167.92 515.03 167.92C504.899 167.92 496.687 176.133 496.687 186.264C496.687 196.394 504.899 204.607 515.03 204.607Z" fill="#108775"/>
<path fill-rule="evenodd" clip-rule="evenodd" d="M606.746 247.408C606.746 244.031 609.483 241.293 612.86 241.293V241.293C616.237 241.293 618.975 244.031 618.975 247.408V271.866C618.975 275.243 616.237 277.98 612.86 277.98V277.98C609.483 277.98 606.746 275.243 606.746 271.866V247.408ZM582.288 247.408C582.288 244.031 585.026 241.293 588.403 241.293V241.293C591.779 241.293 594.517 244.031 594.517 247.408V271.866C594.517 275.243 591.779 277.98 588.403 277.98V277.98C585.026 277.98 582.288 275.243 582.288 271.866V247.408ZM606.746 174.035C606.746 170.658 609.483 167.92 612.86 167.92V167.92C616.237 167.92 618.975 170.658 618.975 174.035V198.493C618.975 201.869 616.237 204.607 612.86 204.607V204.607C609.483 204.607 606.746 201.869 606.746 198.493V174.035ZM582.288 174.035C582.288 170.658 585.026 167.92 588.403 167.92V167.92C591.779 167.92 594.517 170.658 594.517 174.035V198.493C594.517 201.869 591.779 204.607 588.403 204.607V204.607C585.026 204.607 582.288 201.869 582.288 198.493V174.035Z" fill="#2E495E"/>
<path d="M290.531 388V345.3H298.339L318.408 375.373V345.3H326.216V388H318.408L298.339 357.988V388H290.531ZM345.657 388.732C341.875 388.732 338.947 387.553 336.873 385.194C334.839 382.835 333.823 379.379 333.823 374.824V357.744H341.57V374.092C341.57 376.695 342.098 378.687 343.156 380.07C344.213 381.453 345.88 382.144 348.158 382.144C350.313 382.144 352.082 381.371 353.465 379.826C354.888 378.281 355.6 376.125 355.6 373.36V357.744H363.408V388H356.515L355.905 382.876C354.969 384.665 353.607 386.089 351.818 387.146C350.069 388.203 348.015 388.732 345.657 388.732ZM368.556 388L379.536 372.872L368.556 357.744H376.913L384.599 368.48L392.224 357.744H400.642L389.601 372.872L400.642 388H392.224L384.599 377.264L376.913 388H368.556ZM419.097 388C415.925 388 413.384 387.227 411.472 385.682C409.561 384.137 408.605 381.392 408.605 377.447V364.271H403.42V357.744H408.605L409.52 349.631H416.413V357.744H424.587V364.271H416.413V377.508C416.413 378.972 416.718 379.989 417.328 380.558C417.979 381.087 419.077 381.351 420.622 381.351H424.404V388H419.097Z" fill="white"/>
<path d="M446.009 388V345.3H453.817L473.886 375.373V345.3H481.694V388H473.886L453.817 357.988V388H446.009ZM493.998 353.047C492.575 353.047 491.396 352.62 490.46 351.766C489.566 350.912 489.118 349.834 489.118 348.533C489.118 347.232 489.566 346.174 490.46 345.361C491.396 344.507 492.575 344.08 493.998 344.08C495.422 344.08 496.581 344.507 497.475 345.361C498.411 346.174 498.878 347.232 498.878 348.533C498.878 349.834 498.411 350.912 497.475 351.766C496.581 352.62 495.422 353.047 493.998 353.047ZM490.094 388V357.744H497.902V388H490.094ZM519.533 388C516.361 388 513.819 387.227 511.908 385.682C509.997 384.137 509.041 381.392 509.041 377.447V364.271H503.856V357.744H509.041L509.956 349.631H516.849V357.744H525.023V364.271H516.849V377.508C516.849 378.972 517.154 379.989 517.764 380.558C518.415 381.087 519.513 381.351 521.058 381.351H524.84V388H519.533ZM531.727 388V357.744H538.681L539.413 363.417C540.511 361.465 541.995 359.92 543.866 358.781C545.777 357.602 548.014 357.012 550.576 357.012V365.247H548.38C546.672 365.247 545.147 365.511 543.805 366.04C542.463 366.569 541.405 367.484 540.633 368.785C539.901 370.086 539.535 371.896 539.535 374.214V388H531.727ZM569.894 388.732C566.966 388.732 564.323 388.061 561.964 386.719C559.646 385.377 557.796 383.527 556.413 381.168C555.071 378.769 554.4 376.003 554.4 372.872C554.4 369.741 555.091 366.996 556.474 364.637C557.857 362.238 559.707 360.367 562.025 359.025C564.384 357.683 567.027 357.012 569.955 357.012C572.842 357.012 575.445 357.683 577.763 359.025C580.122 360.367 581.972 362.238 583.314 364.637C584.697 366.996 585.388 369.741 585.388 372.872C585.388 376.003 584.697 378.769 583.314 381.168C581.972 383.527 580.122 385.377 577.763 386.719C575.404 388.061 572.781 388.732 569.894 388.732ZM569.894 381.961C571.927 381.961 573.696 381.209 575.201 379.704C576.706 378.159 577.458 375.881 577.458 372.872C577.458 369.863 576.706 367.606 575.201 366.101C573.696 364.556 571.948 363.783 569.955 363.783C567.881 363.783 566.092 364.556 564.587 366.101C563.123 367.606 562.391 369.863 562.391 372.872C562.391 375.881 563.123 378.159 564.587 379.704C566.092 381.209 567.861 381.961 569.894 381.961Z" fill="url(#paint1_angular_1734_24)"/>
<path d="M621.666 388.732C618.535 388.732 615.77 388.203 613.37 387.146C610.971 386.048 609.08 384.503 607.697 382.51C606.315 380.477 605.603 378.016 605.562 375.129H613.797C613.879 377.122 614.59 378.809 615.932 380.192C617.315 381.534 619.206 382.205 621.605 382.205C623.679 382.205 625.326 381.717 626.546 380.741C627.766 379.724 628.376 378.382 628.376 376.715C628.376 374.966 627.827 373.604 626.729 372.628C625.672 371.652 624.249 370.859 622.459 370.249C620.67 369.639 618.759 368.988 616.725 368.297C613.431 367.158 610.91 365.694 609.161 363.905C607.453 362.116 606.599 359.737 606.599 356.768C606.559 354.247 607.148 352.091 608.368 350.302C609.629 348.472 611.337 347.069 613.492 346.093C615.648 345.076 618.128 344.568 620.934 344.568C623.781 344.568 626.282 345.076 628.437 346.093C630.633 347.11 632.341 348.533 633.561 350.363C634.822 352.193 635.493 354.369 635.574 356.89H627.217C627.177 355.385 626.587 354.064 625.448 352.925C624.35 351.746 622.805 351.156 620.812 351.156C619.104 351.115 617.661 351.542 616.481 352.437C615.343 353.291 614.773 354.552 614.773 356.219C614.773 357.642 615.221 358.781 616.115 359.635C617.01 360.448 618.23 361.14 619.775 361.709C621.321 362.278 623.09 362.888 625.082 363.539C627.197 364.271 629.129 365.125 630.877 366.101C632.626 367.077 634.029 368.378 635.086 370.005C636.144 371.591 636.672 373.645 636.672 376.166C636.672 378.403 636.103 380.477 634.964 382.388C633.826 384.299 632.138 385.845 629.901 387.024C627.665 388.163 624.92 388.732 621.666 388.732ZM656.783 388C653.611 388 651.069 387.227 649.158 385.682C647.247 384.137 646.291 381.392 646.291 377.447V364.271H641.106V357.744H646.291L647.206 349.631H654.099V357.744H662.273V364.271H654.099V377.508C654.099 378.972 654.404 379.989 655.014 380.558C655.665 381.087 656.763 381.351 658.308 381.351H662.09V388H656.783ZM682.72 388.732C679.792 388.732 677.149 388.061 674.79 386.719C672.472 385.377 670.622 383.527 669.239 381.168C667.897 378.769 667.226 376.003 667.226 372.872C667.226 369.741 667.918 366.996 669.3 364.637C670.683 362.238 672.533 360.367 674.851 359.025C677.21 357.683 679.853 357.012 682.781 357.012C685.669 357.012 688.271 357.683 690.589 359.025C692.948 360.367 694.798 362.238 696.14 364.637C697.523 366.996 698.214 369.741 698.214 372.872C698.214 376.003 697.523 378.769 696.14 381.168C694.798 383.527 692.948 385.377 690.589 386.719C688.231 388.061 685.608 388.732 682.72 388.732ZM682.72 381.961C684.754 381.961 686.523 381.209 688.027 379.704C689.532 378.159 690.284 375.881 690.284 372.872C690.284 369.863 689.532 367.606 688.027 366.101C686.523 364.556 684.774 363.783 682.781 363.783C680.707 363.783 678.918 364.556 677.413 366.101C675.949 367.606 675.217 369.863 675.217 372.872C675.217 375.881 675.949 378.159 677.413 379.704C678.918 381.209 680.687 381.961 682.72 381.961ZM705.195 388V357.744H712.149L712.881 363.417C713.979 361.465 715.464 359.92 717.334 358.781C719.246 357.602 721.482 357.012 724.044 357.012V365.247H721.848C720.14 365.247 718.615 365.511 717.273 366.04C715.931 366.569 714.874 367.484 714.101 368.785C713.369 370.086 713.003 371.896 713.003 374.214V388H705.195ZM739.812 388.732C737.209 388.732 735.074 388.325 733.407 387.512C731.74 386.658 730.499 385.54 729.686 384.157C728.873 382.774 728.466 381.249 728.466 379.582C728.466 376.776 729.564 374.499 731.76 372.75C733.956 371.001 737.25 370.127 741.642 370.127H749.328V369.395C749.328 367.321 748.738 365.796 747.559 364.82C746.38 363.844 744.916 363.356 743.167 363.356C741.581 363.356 740.198 363.742 739.019 364.515C737.84 365.247 737.108 366.345 736.823 367.809H729.198C729.401 365.613 730.133 363.702 731.394 362.075C732.695 360.448 734.363 359.208 736.396 358.354C738.429 357.459 740.707 357.012 743.228 357.012C747.539 357.012 750.934 358.09 753.415 360.245C755.896 362.4 757.136 365.45 757.136 369.395V388H750.487L749.755 383.12C748.86 384.747 747.6 386.089 745.973 387.146C744.387 388.203 742.333 388.732 739.812 388.732ZM741.581 382.632C743.818 382.632 745.546 381.9 746.766 380.436C748.027 378.972 748.82 377.162 749.145 375.007H742.496C740.422 375.007 738.938 375.393 738.043 376.166C737.148 376.898 736.701 377.813 736.701 378.911C736.701 380.09 737.148 381.005 738.043 381.656C738.938 382.307 740.117 382.632 741.581 382.632ZM777.397 378.972C775.933 378.972 774.571 378.809 773.31 378.484L771.053 380.741C771.744 381.107 772.68 381.412 773.859 381.656C775.038 381.9 776.95 382.144 779.593 382.388C783.619 382.754 786.547 383.71 788.377 385.255C790.207 386.8 791.122 388.935 791.122 391.66C791.122 393.449 790.634 395.137 789.658 396.723C788.682 398.35 787.177 399.651 785.144 400.627C783.111 401.644 780.508 402.152 777.336 402.152C773.025 402.152 769.548 401.339 766.905 399.712C764.262 398.126 762.94 395.727 762.94 392.514C762.94 389.789 764.262 387.431 766.905 385.438C766.092 385.072 765.38 384.686 764.77 384.279C764.201 383.872 763.692 383.445 763.245 382.998V381.595L768.552 375.983C766.193 373.909 765.014 371.245 765.014 367.992C765.014 365.959 765.502 364.108 766.478 362.441C767.495 360.774 768.918 359.452 770.748 358.476C772.578 357.5 774.794 357.012 777.397 357.012C779.105 357.012 780.691 357.256 782.155 357.744H793.623V362.502L788.438 362.868C789.251 364.413 789.658 366.121 789.658 367.992C789.658 370.025 789.17 371.876 788.194 373.543C787.218 375.21 785.795 376.532 783.924 377.508C782.094 378.484 779.918 378.972 777.397 378.972ZM777.397 372.994C778.983 372.994 780.284 372.567 781.301 371.713C782.358 370.859 782.887 369.639 782.887 368.053C782.887 366.467 782.358 365.247 781.301 364.393C780.284 363.539 778.983 363.112 777.397 363.112C775.73 363.112 774.388 363.539 773.371 364.393C772.354 365.247 771.846 366.467 771.846 368.053C771.846 369.639 772.354 370.859 773.371 371.713C774.388 372.567 775.73 372.994 777.397 372.994ZM770.077 391.721C770.077 393.226 770.768 394.344 772.151 395.076C773.574 395.849 775.303 396.235 777.336 396.235C779.288 396.235 780.874 395.828 782.094 395.015C783.314 394.242 783.924 393.185 783.924 391.843C783.924 390.745 783.517 389.83 782.704 389.098C781.931 388.366 780.366 387.919 778.007 387.756C776.34 387.634 774.794 387.451 773.371 387.207C772.192 387.858 771.338 388.569 770.809 389.342C770.321 390.115 770.077 390.908 770.077 391.721ZM812.826 388.732C809.776 388.732 807.072 388.081 804.713 386.78C802.354 385.479 800.504 383.649 799.162 381.29C797.82 378.931 797.149 376.207 797.149 373.116C797.149 369.985 797.8 367.199 799.101 364.759C800.443 362.319 802.273 360.428 804.591 359.086C806.95 357.703 809.715 357.012 812.887 357.012C815.856 357.012 818.479 357.663 820.756 358.964C823.033 360.265 824.802 362.055 826.063 364.332C827.364 366.569 828.015 369.07 828.015 371.835C828.015 372.282 827.995 372.75 827.954 373.238C827.954 373.726 827.934 374.234 827.893 374.763H804.896C805.059 377.122 805.872 378.972 807.336 380.314C808.841 381.656 810.65 382.327 812.765 382.327C814.351 382.327 815.673 381.981 816.73 381.29C817.828 380.558 818.641 379.623 819.17 378.484H827.1C826.531 380.395 825.575 382.144 824.233 383.73C822.932 385.275 821.305 386.495 819.353 387.39C817.442 388.285 815.266 388.732 812.826 388.732ZM812.887 363.356C810.976 363.356 809.288 363.905 807.824 365.003C806.36 366.06 805.425 367.687 805.018 369.883H820.085C819.963 367.89 819.231 366.304 817.889 365.125C816.547 363.946 814.88 363.356 812.887 363.356Z" fill="#00DC82"/>
<defs>
<radialGradient id="paint0_radial_1734_24" cx="0" cy="0" r="1" gradientUnits="userSpaceOnUse" gradientTransform="translate(558) rotate(90) scale(310.5 698.126)">
<stop stop-color="#02473E"/>
<stop offset="0.945" stop-color="#020420"/>
</radialGradient>
<radialGradient id="paint1_angular_1734_24" cx="0" cy="0" r="1" gradientUnits="userSpaceOnUse" gradientTransform="translate(521.5 375) rotate(107.526) scale(19.9249 27.8947)">
<stop offset="0.111982" stop-color="#53B8F4"/>
<stop offset="0.325" stop-color="#F675B8"/>
<stop offset="0.615" stop-color="#FCB5BF"/>
<stop offset="0.760302" stop-color="#B5D3F8"/>
</radialGradient>
</defs>
</svg>
