<svg width="1029" height="541" viewBox="0 0 1029 541" fill="none" xmlns="http://www.w3.org/2000/svg">
<path fill-rule="evenodd" clip-rule="evenodd" d="M499.136 117.28C499.136 52.508 551.644 -7.62939e-06 616.416 0L911.679 3.05176e-05C976.451 3.8147e-05 1028.96 52.508 1028.96 117.28V195C1028.96 204.052 1026.06 212.427 1021.14 219.247C1019.72 217.535 1018.23 215.871 1016.68 214.259C1007.47 204.671 996.318 197.154 983.974 192.21C971.899 187.374 958.952 185.108 945.959 185.552V117.28C945.959 98.3477 930.612 83 911.679 83L616.416 83C597.483 83 582.136 98.3477 582.136 117.28V205.012C582.136 223.944 597.483 239.292 616.416 239.292H911.679C976.451 239.292 1028.96 291.8 1028.96 356.572L1028.96 423.22C1028.96 487.992 976.451 540.5 911.679 540.5H615.78C551.008 540.5 498.5 487.992 498.5 423.22V366.5C498.5 356.266 502.205 346.897 508.346 339.661C509.834 341.507 511.402 343.294 513.046 345.016C521.359 353.72 531.431 360.554 542.591 365.064C553.751 369.573 565.743 371.653 577.769 371.167C579.016 371.117 580.26 371.039 581.5 370.934V423.22C581.5 442.152 596.848 457.5 615.78 457.5H911.679C930.611 457.5 945.959 442.152 945.959 423.22L945.959 356.572C945.959 337.64 930.611 322.292 911.679 322.292H616.416C582.19 322.292 551.389 307.631 529.949 284.247C529.61 283.685 529.274 283.116 528.941 282.54L528.37 282.49C510.173 261.828 499.136 234.709 499.136 205.012V117.28Z" fill="#00DC82"/>
<path fill-rule="evenodd" clip-rule="evenodd" d="M466.065 46.8286C461.86 58.4141 459.986 70.7065 460.541 83H117.916C98.9834 83 83.6357 98.3477 83.6357 117.28V239.292H336C358.92 239.292 377.5 257.872 377.5 280.792C377.5 303.712 358.92 322.292 336 322.292H83.515L82.9998 499.121C82.9331 522.041 64.2988 540.567 41.3791 540.5C18.4594 540.433 -0.0665925 521.799 0.000179933 498.879L0.635724 280.792V280.731V117.28C0.635724 52.5081 53.1438 0 117.916 0H490.5C494.241 0 497.866 0.495009 501.314 1.4231C496.18 4.92588 491.393 8.94088 487.031 13.4167C477.749 22.9391 470.602 34.3291 466.065 46.8286Z" fill="#00DC82"/>
</svg>
