<svg width="1280" height="640" viewBox="0 0 1280 640" fill="none" xmlns="http://www.w3.org/2000/svg">
<rect width="1280" height="640" fill="url(#paint0_radial_1853_115077)"/>
<path d="M326.414 487V466H339.764V468.58H329.594V475.12H338.864V477.64H329.594V484.42H339.764V487H326.414ZM348.473 487.36C347.213 487.36 346.173 487.15 345.353 486.73C344.533 486.31 343.923 485.76 343.523 485.08C343.123 484.38 342.923 483.62 342.923 482.8C342.923 481.36 343.483 480.22 344.603 479.38C345.723 478.54 347.323 478.12 349.403 478.12H353.303V477.85C353.303 476.69 352.983 475.82 352.343 475.24C351.723 474.66 350.913 474.37 349.913 474.37C349.033 474.37 348.263 474.59 347.603 475.03C346.963 475.45 346.573 476.08 346.433 476.92H343.253C343.353 475.84 343.713 474.92 344.333 474.16C344.973 473.38 345.773 472.79 346.733 472.39C347.713 471.97 348.783 471.76 349.943 471.76C352.023 471.76 353.633 472.31 354.773 473.41C355.913 474.49 356.483 475.97 356.483 477.85V487H353.723L353.453 484.45C353.033 485.27 352.423 485.96 351.623 486.52C350.823 487.08 349.773 487.36 348.473 487.36ZM349.103 484.78C349.963 484.78 350.683 484.58 351.263 484.18C351.863 483.76 352.323 483.21 352.643 482.53C352.983 481.85 353.193 481.1 353.273 480.28H349.733C348.473 480.28 347.573 480.5 347.033 480.94C346.513 481.38 346.253 481.93 346.253 482.59C346.253 483.27 346.503 483.81 347.003 484.21C347.523 484.59 348.223 484.78 349.103 484.78ZM366.131 487.36C364.251 487.36 362.701 486.9 361.481 485.98C360.261 485.06 359.561 483.84 359.381 482.32H362.591C362.751 483 363.131 483.59 363.731 484.09C364.331 484.57 365.121 484.81 366.101 484.81C367.061 484.81 367.761 484.61 368.201 484.21C368.641 483.81 368.861 483.35 368.861 482.83C368.861 482.07 368.551 481.56 367.931 481.3C367.331 481.02 366.491 480.77 365.411 480.55C364.571 480.37 363.731 480.13 362.891 479.83C362.071 479.53 361.381 479.11 360.821 478.57C360.281 478.01 360.011 477.26 360.011 476.32C360.011 475.02 360.511 473.94 361.511 473.08C362.511 472.2 363.911 471.76 365.711 471.76C367.371 471.76 368.711 472.16 369.731 472.96C370.771 473.76 371.381 474.89 371.561 476.35H368.501C368.401 475.71 368.101 475.21 367.601 474.85C367.121 474.49 366.471 474.31 365.651 474.31C364.851 474.31 364.231 474.48 363.791 474.82C363.351 475.14 363.131 475.56 363.131 476.08C363.131 476.6 363.431 477.01 364.031 477.31C364.651 477.61 365.461 477.88 366.461 478.12C367.461 478.34 368.381 478.6 369.221 478.9C370.081 479.18 370.771 479.6 371.291 480.16C371.811 480.72 372.071 481.54 372.071 482.62C372.091 483.98 371.561 485.11 370.481 486.01C369.421 486.91 367.971 487.36 366.131 487.36ZM376.55 493.6L380.12 485.77H379.25L373.37 472.12H376.82L381.38 483.13L386.15 472.12H389.51L379.91 493.6H376.55ZM405.623 487.36C403.743 487.36 402.193 486.9 400.973 485.98C399.753 485.06 399.053 483.84 398.873 482.32H402.083C402.243 483 402.623 483.59 403.223 484.09C403.823 484.57 404.613 484.81 405.593 484.81C406.553 484.81 407.253 484.61 407.693 484.21C408.133 483.81 408.353 483.35 408.353 482.83C408.353 482.07 408.043 481.56 407.423 481.3C406.823 481.02 405.983 480.77 404.903 480.55C404.063 480.37 403.223 480.13 402.383 479.83C401.563 479.53 400.873 479.11 400.313 478.57C399.773 478.01 399.503 477.26 399.503 476.32C399.503 475.02 400.003 473.94 401.003 473.08C402.003 472.2 403.403 471.76 405.203 471.76C406.863 471.76 408.203 472.16 409.223 472.96C410.263 473.76 410.873 474.89 411.053 476.35H407.993C407.893 475.71 407.593 475.21 407.093 474.85C406.613 474.49 405.963 474.31 405.143 474.31C404.343 474.31 403.723 474.48 403.283 474.82C402.843 475.14 402.623 475.56 402.623 476.08C402.623 476.6 402.923 477.01 403.523 477.31C404.143 477.61 404.953 477.88 405.953 478.12C406.953 478.34 407.873 478.6 408.713 478.9C409.573 479.18 410.263 479.6 410.783 480.16C411.303 480.72 411.563 481.54 411.563 482.62C411.583 483.98 411.053 485.11 409.973 486.01C408.913 486.91 407.463 487.36 405.623 487.36ZM421.994 487.36C420.574 487.36 419.294 487.04 418.154 486.4C417.034 485.74 416.144 484.83 415.484 483.67C414.824 482.49 414.494 481.12 414.494 479.56C414.494 478 414.824 476.64 415.484 475.48C416.164 474.3 417.074 473.39 418.214 472.75C419.354 472.09 420.624 471.76 422.024 471.76C423.444 471.76 424.714 472.09 425.834 472.75C426.974 473.39 427.874 474.3 428.534 475.48C429.214 476.64 429.554 478 429.554 479.56C429.554 481.12 429.214 482.49 428.534 483.67C427.874 484.83 426.974 485.74 425.834 486.4C424.694 487.04 423.414 487.36 421.994 487.36ZM421.994 484.63C422.754 484.63 423.454 484.44 424.094 484.06C424.754 483.68 425.284 483.12 425.684 482.38C426.084 481.62 426.284 480.68 426.284 479.56C426.284 478.44 426.084 477.51 425.684 476.77C425.304 476.01 424.784 475.44 424.124 475.06C423.484 474.68 422.784 474.49 422.024 474.49C421.264 474.49 420.554 474.68 419.894 475.06C419.254 475.44 418.734 476.01 418.334 476.77C417.934 477.51 417.734 478.44 417.734 479.56C417.734 480.68 417.934 481.62 418.334 482.38C418.734 483.12 419.254 483.68 419.894 484.06C420.534 484.44 421.234 484.63 421.994 484.63ZM432.993 487V465.4H436.173V487H432.993ZM445.69 487.36C443.89 487.36 442.47 486.8 441.43 485.68C440.41 484.56 439.9 482.89 439.9 480.67V472.12H443.08V480.34C443.08 483.22 444.26 484.66 446.62 484.66C447.8 484.66 448.77 484.24 449.53 483.4C450.29 482.56 450.67 481.36 450.67 479.8V472.12H453.85V487H451.03L450.79 484.39C450.33 485.31 449.65 486.04 448.75 486.58C447.87 487.1 446.85 487.36 445.69 487.36ZM464.136 487C462.676 487 461.516 486.65 460.656 485.95C459.796 485.23 459.366 483.96 459.366 482.14V474.79H456.816V472.12H459.366L459.756 468.34H462.546V472.12H466.746V474.79H462.546V482.14C462.546 482.96 462.716 483.53 463.056 483.85C463.416 484.15 464.026 484.3 464.886 484.3H466.596V487H464.136ZM471.825 469.3C471.225 469.3 470.725 469.12 470.325 468.76C469.945 468.38 469.755 467.91 469.755 467.35C469.755 466.79 469.945 466.33 470.325 465.97C470.725 465.59 471.225 465.4 471.825 465.4C472.425 465.4 472.915 465.59 473.295 465.97C473.695 466.33 473.895 466.79 473.895 467.35C473.895 467.91 473.695 468.38 473.295 468.76C472.915 469.12 472.425 469.3 471.825 469.3ZM470.235 487V472.12H473.415V487H470.235ZM484.573 487.36C483.153 487.36 481.873 487.04 480.733 486.4C479.613 485.74 478.723 484.83 478.063 483.67C477.403 482.49 477.073 481.12 477.073 479.56C477.073 478 477.403 476.64 478.063 475.48C478.743 474.3 479.653 473.39 480.793 472.75C481.933 472.09 483.203 471.76 484.603 471.76C486.023 471.76 487.293 472.09 488.413 472.75C489.553 473.39 490.453 474.3 491.113 475.48C491.793 476.64 492.133 478 492.133 479.56C492.133 481.12 491.793 482.49 491.113 483.67C490.453 484.83 489.553 485.74 488.413 486.4C487.273 487.04 485.993 487.36 484.573 487.36ZM484.573 484.63C485.333 484.63 486.033 484.44 486.673 484.06C487.333 483.68 487.863 483.12 488.263 482.38C488.663 481.62 488.863 480.68 488.863 479.56C488.863 478.44 488.663 477.51 488.263 476.77C487.883 476.01 487.363 475.44 486.703 475.06C486.063 474.68 485.363 474.49 484.603 474.49C483.843 474.49 483.133 474.68 482.473 475.06C481.833 475.44 481.313 476.01 480.913 476.77C480.513 477.51 480.313 478.44 480.313 479.56C480.313 480.68 480.513 481.62 480.913 482.38C481.313 483.12 481.833 483.68 482.473 484.06C483.113 484.44 483.813 484.63 484.573 484.63ZM495.572 487V472.12H498.392L498.632 474.73C499.092 473.81 499.762 473.09 500.642 472.57C501.542 472.03 502.572 471.76 503.732 471.76C505.532 471.76 506.942 472.32 507.962 473.44C509.002 474.56 509.522 476.23 509.522 478.45V487H506.372V478.78C506.372 475.9 505.192 474.46 502.832 474.46C501.652 474.46 500.672 474.88 499.892 475.72C499.132 476.56 498.752 477.76 498.752 479.32V487H495.572ZM527.065 487C525.605 487 524.445 486.65 523.585 485.95C522.725 485.23 522.295 483.96 522.295 482.14V474.79H519.745V472.12H522.295L522.685 468.34H525.475V472.12H529.675V474.79H525.475V482.14C525.475 482.96 525.645 483.53 525.985 483.85C526.345 484.15 526.955 484.3 527.815 484.3H529.525V487H527.065ZM539.533 487.36C538.113 487.36 536.833 487.04 535.693 486.4C534.573 485.74 533.683 484.83 533.023 483.67C532.363 482.49 532.033 481.12 532.033 479.56C532.033 478 532.363 476.64 533.023 475.48C533.703 474.3 534.613 473.39 535.753 472.75C536.893 472.09 538.163 471.76 539.563 471.76C540.983 471.76 542.253 472.09 543.373 472.75C544.513 473.39 545.413 474.3 546.073 475.48C546.753 476.64 547.093 478 547.093 479.56C547.093 481.12 546.753 482.49 546.073 483.67C545.413 484.83 544.513 485.74 543.373 486.4C542.233 487.04 540.953 487.36 539.533 487.36ZM539.533 484.63C540.293 484.63 540.993 484.44 541.633 484.06C542.293 483.68 542.823 483.12 543.223 482.38C543.623 481.62 543.823 480.68 543.823 479.56C543.823 478.44 543.623 477.51 543.223 476.77C542.843 476.01 542.323 475.44 541.663 475.06C541.023 474.68 540.323 474.49 539.563 474.49C538.803 474.49 538.093 474.68 537.433 475.06C536.793 475.44 536.273 476.01 535.873 476.77C535.473 477.51 535.273 478.44 535.273 479.56C535.273 480.68 535.473 481.62 535.873 482.38C536.273 483.12 536.793 483.68 537.433 484.06C538.073 484.44 538.773 484.63 539.533 484.63ZM564.031 487.36C562.151 487.36 560.601 486.9 559.381 485.98C558.161 485.06 557.461 483.84 557.281 482.32H560.491C560.651 483 561.031 483.59 561.631 484.09C562.231 484.57 563.021 484.81 564.001 484.81C564.961 484.81 565.661 484.61 566.101 484.21C566.541 483.81 566.761 483.35 566.761 482.83C566.761 482.07 566.451 481.56 565.831 481.3C565.231 481.02 564.391 480.77 563.311 480.55C562.471 480.37 561.631 480.13 560.791 479.83C559.971 479.53 559.281 479.11 558.721 478.57C558.181 478.01 557.911 477.26 557.911 476.32C557.911 475.02 558.411 473.94 559.411 473.08C560.411 472.2 561.811 471.76 563.611 471.76C565.271 471.76 566.611 472.16 567.631 472.96C568.671 473.76 569.281 474.89 569.461 476.35H566.401C566.301 475.71 566.001 475.21 565.501 474.85C565.021 474.49 564.371 474.31 563.551 474.31C562.751 474.31 562.131 474.48 561.691 474.82C561.251 475.14 561.031 475.56 561.031 476.08C561.031 476.6 561.331 477.01 561.931 477.31C562.551 477.61 563.361 477.88 564.361 478.12C565.361 478.34 566.281 478.6 567.121 478.9C567.981 479.18 568.671 479.6 569.191 480.16C569.711 480.72 569.971 481.54 569.971 482.62C569.991 483.98 569.461 485.11 568.381 486.01C567.321 486.91 565.871 487.36 564.031 487.36ZM579.126 487C577.666 487 576.506 486.65 575.646 485.95C574.786 485.23 574.356 483.96 574.356 482.14V474.79H571.806V472.12H574.356L574.746 468.34H577.536V472.12H581.736V474.79H577.536V482.14C577.536 482.96 577.706 483.53 578.046 483.85C578.406 484.15 579.016 484.3 579.876 484.3H581.586V487H579.126ZM591.594 487.36C590.174 487.36 588.894 487.04 587.754 486.4C586.634 485.74 585.744 484.83 585.084 483.67C584.424 482.49 584.094 481.12 584.094 479.56C584.094 478 584.424 476.64 585.084 475.48C585.764 474.3 586.674 473.39 587.814 472.75C588.954 472.09 590.224 471.76 591.624 471.76C593.044 471.76 594.314 472.09 595.434 472.75C596.574 473.39 597.474 474.3 598.134 475.48C598.814 476.64 599.154 478 599.154 479.56C599.154 481.12 598.814 482.49 598.134 483.67C597.474 484.83 596.574 485.74 595.434 486.4C594.294 487.04 593.014 487.36 591.594 487.36ZM591.594 484.63C592.354 484.63 593.054 484.44 593.694 484.06C594.354 483.68 594.884 483.12 595.284 482.38C595.684 481.62 595.884 480.68 595.884 479.56C595.884 478.44 595.684 477.51 595.284 476.77C594.904 476.01 594.384 475.44 593.724 475.06C593.084 474.68 592.384 474.49 591.624 474.49C590.864 474.49 590.154 474.68 589.494 475.06C588.854 475.44 588.334 476.01 587.934 476.77C587.534 477.51 587.334 478.44 587.334 479.56C587.334 480.68 587.534 481.62 587.934 482.38C588.334 483.12 588.854 483.68 589.494 484.06C590.134 484.44 590.834 484.63 591.594 484.63ZM602.593 487V472.12H605.443L605.713 474.94C606.233 473.96 606.953 473.19 607.873 472.63C608.813 472.05 609.943 471.76 611.263 471.76V475.09H610.393C609.513 475.09 608.723 475.24 608.023 475.54C607.343 475.82 606.793 476.31 606.373 477.01C605.973 477.69 605.773 478.64 605.773 479.86V487H602.593ZM620.539 487.36C619.079 487.36 617.779 487.04 616.639 486.4C615.519 485.74 614.639 484.83 613.999 483.67C613.359 482.51 613.039 481.16 613.039 479.62C613.039 478.06 613.349 476.69 613.969 475.51C614.609 474.33 615.489 473.41 616.609 472.75C617.749 472.09 619.069 471.76 620.569 471.76C622.029 471.76 623.299 472.09 624.379 472.75C625.459 473.39 626.299 474.25 626.899 475.33C627.499 476.41 627.799 477.6 627.799 478.9C627.799 479.1 627.789 479.32 627.769 479.56C627.769 479.78 627.759 480.03 627.739 480.31H616.159C616.259 481.75 616.729 482.85 617.569 483.61C618.429 484.35 619.419 484.72 620.539 484.72C621.439 484.72 622.189 484.52 622.789 484.12C623.409 483.7 623.869 483.14 624.169 482.44H627.349C626.949 483.84 626.149 485.01 624.949 485.95C623.769 486.89 622.299 487.36 620.539 487.36ZM620.539 474.37C619.479 474.37 618.539 474.69 617.719 475.33C616.899 475.95 616.399 476.89 616.219 478.15H624.619C624.559 476.99 624.149 476.07 623.389 475.39C622.629 474.71 621.679 474.37 620.539 474.37ZM639.407 487V474.79H637.277V472.12H639.407V469.96C639.407 468.34 639.807 467.18 640.607 466.48C641.427 465.76 642.577 465.4 644.057 465.4H645.617V468.1H644.537C643.837 468.1 643.337 468.25 643.037 468.55C642.737 468.83 642.587 469.31 642.587 469.99V472.12H652.007V487H648.827V474.79H642.587V487H639.407ZM650.447 469.63C649.847 469.63 649.347 469.45 648.947 469.09C648.567 468.71 648.377 468.23 648.377 467.65C648.377 467.09 648.567 466.63 648.947 466.27C649.347 465.91 649.847 465.73 650.447 465.73C651.047 465.73 651.537 465.91 651.917 466.27C652.317 466.63 652.517 467.09 652.517 467.65C652.517 468.23 652.317 468.71 651.917 469.09C651.537 469.45 651.047 469.63 650.447 469.63ZM656.236 487V465.4H659.416V487H656.236ZM670.403 487.36C668.943 487.36 667.643 487.04 666.503 486.4C665.383 485.74 664.503 484.83 663.863 483.67C663.223 482.51 662.903 481.16 662.903 479.62C662.903 478.06 663.213 476.69 663.833 475.51C664.473 474.33 665.353 473.41 666.473 472.75C667.613 472.09 668.933 471.76 670.433 471.76C671.893 471.76 673.163 472.09 674.243 472.75C675.323 473.39 676.163 474.25 676.763 475.33C677.363 476.41 677.663 477.6 677.663 478.9C677.663 479.1 677.653 479.32 677.633 479.56C677.633 479.78 677.623 480.03 677.603 480.31H666.023C666.123 481.75 666.593 482.85 667.433 483.61C668.293 484.35 669.283 484.72 670.403 484.72C671.303 484.72 672.053 484.52 672.653 484.12C673.273 483.7 673.733 483.14 674.033 482.44H677.213C676.813 483.84 676.013 485.01 674.813 485.95C673.633 486.89 672.163 487.36 670.403 487.36ZM670.403 474.37C669.343 474.37 668.403 474.69 667.583 475.33C666.763 475.95 666.263 476.89 666.083 478.15H674.483C674.423 476.99 674.013 476.07 673.253 475.39C672.493 474.71 671.543 474.37 670.403 474.37ZM686.902 487.36C685.022 487.36 683.472 486.9 682.252 485.98C681.032 485.06 680.332 483.84 680.152 482.32H683.362C683.522 483 683.902 483.59 684.502 484.09C685.102 484.57 685.892 484.81 686.872 484.81C687.832 484.81 688.532 484.61 688.972 484.21C689.412 483.81 689.632 483.35 689.632 482.83C689.632 482.07 689.322 481.56 688.702 481.3C688.102 481.02 687.262 480.77 686.182 480.55C685.342 480.37 684.502 480.13 683.662 479.83C682.842 479.53 682.152 479.11 681.592 478.57C681.052 478.01 680.782 477.26 680.782 476.32C680.782 475.02 681.282 473.94 682.282 473.08C683.282 472.2 684.682 471.76 686.482 471.76C688.142 471.76 689.482 472.16 690.502 472.96C691.542 473.76 692.152 474.89 692.332 476.35H689.272C689.172 475.71 688.872 475.21 688.372 474.85C687.892 474.49 687.242 474.31 686.422 474.31C685.622 474.31 685.002 474.48 684.562 474.82C684.122 475.14 683.902 475.56 683.902 476.08C683.902 476.6 684.202 477.01 684.802 477.31C685.422 477.61 686.232 477.88 687.232 478.12C688.232 478.34 689.152 478.6 689.992 478.9C690.852 479.18 691.542 479.6 692.062 480.16C692.582 480.72 692.842 481.54 692.842 482.62C692.862 483.98 692.332 485.11 691.252 486.01C690.192 486.91 688.742 487.36 686.902 487.36ZM705.672 469.3C705.072 469.3 704.572 469.12 704.172 468.76C703.792 468.38 703.602 467.91 703.602 467.35C703.602 466.79 703.792 466.33 704.172 465.97C704.572 465.59 705.072 465.4 705.672 465.4C706.272 465.4 706.762 465.59 707.142 465.97C707.542 466.33 707.742 466.79 707.742 467.35C707.742 467.91 707.542 468.38 707.142 468.76C706.762 469.12 706.272 469.3 705.672 469.3ZM704.082 487V472.12H707.262V487H704.082ZM711.46 487V472.12H714.28L714.52 474.73C714.98 473.81 715.65 473.09 716.53 472.57C717.43 472.03 718.46 471.76 719.62 471.76C721.42 471.76 722.83 472.32 723.85 473.44C724.89 474.56 725.41 476.23 725.41 478.45V487H722.26V478.78C722.26 475.9 721.08 474.46 718.72 474.46C717.54 474.46 716.56 474.88 715.78 475.72C715.02 476.56 714.64 477.76 714.64 479.32V487H711.46ZM738.454 493.6L742.024 485.77H741.154L735.274 472.12H738.724L743.284 483.13L748.054 472.12H751.414L741.814 493.6H738.454ZM759.641 487.36C758.221 487.36 756.941 487.04 755.801 486.4C754.681 485.74 753.791 484.83 753.131 483.67C752.471 482.49 752.141 481.12 752.141 479.56C752.141 478 752.471 476.64 753.131 475.48C753.811 474.3 754.721 473.39 755.861 472.75C757.001 472.09 758.271 471.76 759.671 471.76C761.091 471.76 762.361 472.09 763.481 472.75C764.621 473.39 765.521 474.3 766.181 475.48C766.861 476.64 767.201 478 767.201 479.56C767.201 481.12 766.861 482.49 766.181 483.67C765.521 484.83 764.621 485.74 763.481 486.4C762.341 487.04 761.061 487.36 759.641 487.36ZM759.641 484.63C760.401 484.63 761.101 484.44 761.741 484.06C762.401 483.68 762.931 483.12 763.331 482.38C763.731 481.62 763.931 480.68 763.931 479.56C763.931 478.44 763.731 477.51 763.331 476.77C762.951 476.01 762.431 475.44 761.771 475.06C761.131 474.68 760.431 474.49 759.671 474.49C758.911 474.49 758.201 474.68 757.541 475.06C756.901 475.44 756.381 476.01 755.981 476.77C755.581 477.51 755.381 478.44 755.381 479.56C755.381 480.68 755.581 481.62 755.981 482.38C756.381 483.12 756.901 483.68 757.541 484.06C758.181 484.44 758.881 484.63 759.641 484.63ZM776.13 487.36C774.33 487.36 772.91 486.8 771.87 485.68C770.85 484.56 770.34 482.89 770.34 480.67V472.12H773.52V480.34C773.52 483.22 774.7 484.66 777.06 484.66C778.24 484.66 779.21 484.24 779.97 483.4C780.73 482.56 781.11 481.36 781.11 479.8V472.12H784.29V487H781.47L781.23 484.39C780.77 485.31 780.09 486.04 779.19 486.58C778.31 487.1 777.29 487.36 776.13 487.36ZM788.335 487V472.12H791.185L791.455 474.94C791.975 473.96 792.695 473.19 793.615 472.63C794.555 472.05 795.685 471.76 797.005 471.76V475.09H796.135C795.255 475.09 794.465 475.24 793.765 475.54C793.085 475.82 792.535 476.31 792.115 477.01C791.715 477.69 791.515 478.64 791.515 479.86V487H788.335ZM807.41 487V466H810.59L821.12 481.81V466H824.3V487H821.12L810.59 471.19V487H807.41ZM833.933 487.36C832.133 487.36 830.713 486.8 829.673 485.68C828.653 484.56 828.143 482.89 828.143 480.67V472.12H831.323V480.34C831.323 483.22 832.503 484.66 834.863 484.66C836.043 484.66 837.013 484.24 837.773 483.4C838.533 482.56 838.913 481.36 838.913 479.8V472.12H842.093V487H839.273L839.033 484.39C838.573 485.31 837.893 486.04 836.993 486.58C836.113 487.1 835.093 487.36 833.933 487.36ZM844.698 487L849.978 479.56L844.698 472.12H848.088L852.078 477.82L856.038 472.12H859.458L854.178 479.56L859.458 487H856.038L852.078 481.3L848.088 487H844.698ZM868.286 487C866.826 487 865.666 486.65 864.806 485.95C863.946 485.23 863.516 483.96 863.516 482.14V474.79H860.966V472.12H863.516L863.906 468.34H866.696V472.12H870.896V474.79H866.696V482.14C866.696 482.96 866.866 483.53 867.206 483.85C867.566 484.15 868.176 484.3 869.036 484.3H870.746V487H868.286ZM886.774 487.36C885.514 487.36 884.474 487.15 883.654 486.73C882.834 486.31 882.224 485.76 881.824 485.08C881.424 484.38 881.224 483.62 881.224 482.8C881.224 481.36 881.784 480.22 882.904 479.38C884.024 478.54 885.624 478.12 887.704 478.12H891.604V477.85C891.604 476.69 891.284 475.82 890.644 475.24C890.024 474.66 889.214 474.37 888.214 474.37C887.334 474.37 886.564 474.59 885.904 475.03C885.264 475.45 884.874 476.08 884.734 476.92H881.554C881.654 475.84 882.014 474.92 882.634 474.16C883.274 473.38 884.074 472.79 885.034 472.39C886.014 471.97 887.084 471.76 888.244 471.76C890.324 471.76 891.934 472.31 893.074 473.41C894.214 474.49 894.784 475.97 894.784 477.85V487H892.024L891.754 484.45C891.334 485.27 890.724 485.96 889.924 486.52C889.124 487.08 888.074 487.36 886.774 487.36ZM887.404 484.78C888.264 484.78 888.984 484.58 889.564 484.18C890.164 483.76 890.624 483.21 890.944 482.53C891.284 481.85 891.494 481.1 891.574 480.28H888.034C886.774 480.28 885.874 480.5 885.334 480.94C884.814 481.38 884.554 481.93 884.554 482.59C884.554 483.27 884.804 483.81 885.304 484.21C885.824 484.59 886.524 484.78 887.404 484.78ZM898.491 493.6V472.12H901.341L901.671 474.43C902.151 473.73 902.811 473.11 903.651 472.57C904.491 472.03 905.571 471.76 906.891 471.76C908.331 471.76 909.601 472.1 910.701 472.78C911.801 473.46 912.661 474.39 913.281 475.57C913.921 476.75 914.241 478.09 914.241 479.59C914.241 481.09 913.921 482.43 913.281 483.61C912.661 484.77 911.801 485.69 910.701 486.37C909.601 487.03 908.321 487.36 906.861 487.36C905.701 487.36 904.671 487.13 903.771 486.67C902.891 486.21 902.191 485.56 901.671 484.72V493.6H898.491ZM906.321 484.6C907.681 484.6 908.801 484.14 909.681 483.22C910.561 482.28 911.001 481.06 911.001 479.56C911.001 478.58 910.801 477.71 910.401 476.95C910.001 476.19 909.451 475.6 908.751 475.18C908.051 474.74 907.241 474.52 906.321 474.52C904.961 474.52 903.841 474.99 902.961 475.93C902.101 476.87 901.671 478.08 901.671 479.56C901.671 481.06 902.101 482.28 902.961 483.22C903.841 484.14 904.961 484.6 906.321 484.6ZM917.681 493.6V472.12H920.531L920.861 474.43C921.341 473.73 922.001 473.11 922.841 472.57C923.681 472.03 924.761 471.76 926.081 471.76C927.521 471.76 928.791 472.1 929.891 472.78C930.991 473.46 931.851 474.39 932.471 475.57C933.111 476.75 933.431 478.09 933.431 479.59C933.431 481.09 933.111 482.43 932.471 483.61C931.851 484.77 930.991 485.69 929.891 486.37C928.791 487.03 927.511 487.36 926.051 487.36C924.891 487.36 923.861 487.13 922.961 486.67C922.081 486.21 921.381 485.56 920.861 484.72V493.6H917.681ZM925.511 484.6C926.871 484.6 927.991 484.14 928.871 483.22C929.751 482.28 930.191 481.06 930.191 479.56C930.191 478.58 929.991 477.71 929.591 476.95C929.191 476.19 928.641 475.6 927.941 475.18C927.241 474.74 926.431 474.52 925.511 474.52C924.151 474.52 923.031 474.99 922.151 475.93C921.291 476.87 920.861 478.08 920.861 479.56C920.861 481.06 921.291 482.28 922.151 483.22C923.031 484.14 924.151 484.6 925.511 484.6ZM942.81 487.36C940.93 487.36 939.38 486.9 938.16 485.98C936.94 485.06 936.24 483.84 936.06 482.32H939.27C939.43 483 939.81 483.59 940.41 484.09C941.01 484.57 941.8 484.81 942.78 484.81C943.74 484.81 944.44 484.61 944.88 484.21C945.32 483.81 945.54 483.35 945.54 482.83C945.54 482.07 945.23 481.56 944.61 481.3C944.01 481.02 943.17 480.77 942.09 480.55C941.25 480.37 940.41 480.13 939.57 479.83C938.75 479.53 938.06 479.11 937.5 478.57C936.96 478.01 936.69 477.26 936.69 476.32C936.69 475.02 937.19 473.94 938.19 473.08C939.19 472.2 940.59 471.76 942.39 471.76C944.05 471.76 945.39 472.16 946.41 472.96C947.45 473.76 948.06 474.89 948.24 476.35H945.18C945.08 475.71 944.78 475.21 944.28 474.85C943.8 474.49 943.15 474.31 942.33 474.31C941.53 474.31 940.91 474.48 940.47 474.82C940.03 475.14 939.81 475.56 939.81 476.08C939.81 476.6 940.11 477.01 940.71 477.31C941.33 477.61 942.14 477.88 943.14 478.12C944.14 478.34 945.06 478.6 945.9 478.9C946.76 479.18 947.45 479.6 947.97 480.16C948.49 480.72 948.75 481.54 948.75 482.62C948.77 483.98 948.24 485.11 947.16 486.01C946.1 486.91 944.65 487.36 942.81 487.36ZM953.482 487.18C952.882 487.18 952.382 486.99 951.982 486.61C951.602 486.21 951.412 485.74 951.412 485.2C951.412 484.64 951.602 484.17 951.982 483.79C952.382 483.39 952.882 483.19 953.482 483.19C954.082 483.19 954.572 483.39 954.952 483.79C955.332 484.17 955.522 484.64 955.522 485.2C955.522 485.74 955.332 486.21 954.952 486.61C954.572 486.99 954.082 487.18 953.482 487.18Z" fill="#D5E8FF" fill-opacity="0.87"/>
<path d="M394.251 432V389.3H402.059L422.128 419.373V389.3H429.936V432H422.128L402.059 401.988V432H394.251ZM449.376 432.732C445.594 432.732 442.666 431.553 440.592 429.194C438.559 426.835 437.542 423.379 437.542 418.824V401.744H445.289V418.092C445.289 420.695 445.818 422.687 446.875 424.07C447.933 425.453 449.6 426.144 451.877 426.144C454.033 426.144 455.802 425.371 457.184 423.826C458.608 422.281 459.319 420.125 459.319 417.36V401.744H467.127V432H460.234L459.624 426.876C458.689 428.665 457.327 430.089 455.537 431.146C453.789 432.203 451.735 432.732 449.376 432.732ZM472.276 432L483.256 416.872L472.276 401.744H480.633L488.319 412.48L495.944 401.744H504.362L493.321 416.872L504.362 432H495.944L488.319 421.264L480.633 432H472.276ZM522.817 432C519.645 432 517.103 431.227 515.192 429.682C513.281 428.137 512.325 425.392 512.325 421.447V408.271H507.14V401.744H512.325L513.24 393.631H520.133V401.744H528.307V408.271H520.133V421.508C520.133 422.972 520.438 423.989 521.048 424.558C521.699 425.087 522.797 425.351 524.342 425.351H528.124V432H522.817Z" fill="#00DC82"/>
<path d="M549.729 432V389.3H577.301V395.583H557.537V407.539H573.519V413.7H557.537V432H549.729ZM587.353 397.047C585.929 397.047 584.75 396.62 583.815 395.766C582.92 394.912 582.473 393.834 582.473 392.533C582.473 391.232 582.92 390.174 583.815 389.361C584.75 388.507 585.929 388.08 587.353 388.08C588.776 388.08 589.935 388.507 590.83 389.361C591.765 390.174 592.233 391.232 592.233 392.533C592.233 393.834 591.765 394.912 590.83 395.766C589.935 396.62 588.776 397.047 587.353 397.047ZM583.449 432V401.744H591.257V432H583.449ZM599.406 432V388.08H607.214V432H599.406ZM629.894 432.732C626.844 432.732 624.139 432.081 621.781 430.78C619.422 429.479 617.572 427.649 616.23 425.29C614.888 422.931 614.217 420.207 614.217 417.116C614.217 413.985 614.867 411.199 616.169 408.759C617.511 406.319 619.341 404.428 621.659 403.086C624.017 401.703 626.783 401.012 629.955 401.012C632.923 401.012 635.546 401.663 637.824 402.964C640.101 404.265 641.87 406.055 643.131 408.332C644.432 410.569 645.083 413.07 645.083 415.835C645.083 416.282 645.062 416.75 645.022 417.238C645.022 417.726 645.001 418.234 644.961 418.763H621.964C622.126 421.122 622.94 422.972 624.404 424.314C625.908 425.656 627.718 426.327 629.833 426.327C631.419 426.327 632.74 425.981 633.798 425.29C634.896 424.558 635.709 423.623 636.238 422.484H644.168C643.598 424.395 642.643 426.144 641.301 427.73C639.999 429.275 638.373 430.495 636.421 431.39C634.509 432.285 632.334 432.732 629.894 432.732ZM629.955 407.356C628.043 407.356 626.356 407.905 624.892 409.003C623.428 410.06 622.492 411.687 622.086 413.883H637.153C637.031 411.89 636.299 410.304 634.957 409.125C633.615 407.946 631.947 407.356 629.955 407.356ZM680.947 432.732C677.815 432.732 675.05 432.203 672.651 431.146C670.251 430.048 668.36 428.503 666.978 426.51C665.595 424.477 664.883 422.016 664.843 419.129H673.078C673.159 421.122 673.871 422.809 675.213 424.192C676.595 425.534 678.486 426.205 680.886 426.205C682.96 426.205 684.607 425.717 685.827 424.741C687.047 423.724 687.657 422.382 687.657 420.715C687.657 418.966 687.108 417.604 686.01 416.628C684.952 415.652 683.529 414.859 681.74 414.249C679.95 413.639 678.039 412.988 676.006 412.297C672.712 411.158 670.19 409.694 668.442 407.905C666.734 406.116 665.88 403.737 665.88 400.768C665.839 398.247 666.429 396.091 667.649 394.302C668.909 392.472 670.617 391.069 672.773 390.093C674.928 389.076 677.409 388.568 680.215 388.568C683.061 388.568 685.562 389.076 687.718 390.093C689.914 391.11 691.622 392.533 692.842 394.363C694.102 396.193 694.773 398.369 694.855 400.89H686.498C686.457 399.385 685.867 398.064 684.729 396.925C683.631 395.746 682.085 395.156 680.093 395.156C678.385 395.115 676.941 395.542 675.762 396.437C674.623 397.291 674.054 398.552 674.054 400.219C674.054 401.642 674.501 402.781 675.396 403.635C676.29 404.448 677.51 405.14 679.056 405.709C680.601 406.278 682.37 406.888 684.363 407.539C686.477 408.271 688.409 409.125 690.158 410.101C691.906 411.077 693.309 412.378 694.367 414.005C695.424 415.591 695.953 417.645 695.953 420.166C695.953 422.403 695.383 424.477 694.245 426.388C693.106 428.299 691.418 429.845 689.182 431.024C686.945 432.163 684.2 432.732 680.947 432.732ZM716.063 432C712.891 432 710.35 431.227 708.438 429.682C706.527 428.137 705.571 425.392 705.571 421.447V408.271H700.386V401.744H705.571L706.486 393.631H713.379V401.744H721.553V408.271H713.379V421.508C713.379 422.972 713.684 423.989 714.294 424.558C714.945 425.087 716.043 425.351 717.588 425.351H721.37V432H716.063ZM742.001 432.732C739.073 432.732 736.429 432.061 734.071 430.719C731.753 429.377 729.902 427.527 728.52 425.168C727.178 422.769 726.507 420.003 726.507 416.872C726.507 413.741 727.198 410.996 728.581 408.637C729.963 406.238 731.814 404.367 734.132 403.025C736.49 401.683 739.134 401.012 742.062 401.012C744.949 401.012 747.552 401.683 749.87 403.025C752.228 404.367 754.079 406.238 755.421 408.637C756.803 410.996 757.495 413.741 757.495 416.872C757.495 420.003 756.803 422.769 755.421 425.168C754.079 427.527 752.228 429.377 749.87 430.719C747.511 432.061 744.888 432.732 742.001 432.732ZM742.001 425.961C744.034 425.961 745.803 425.209 747.308 423.704C748.812 422.159 749.565 419.881 749.565 416.872C749.565 413.863 748.812 411.606 747.308 410.101C745.803 408.556 744.054 407.783 742.062 407.783C739.988 407.783 738.198 408.556 736.694 410.101C735.23 411.606 734.498 413.863 734.498 416.872C734.498 419.881 735.23 422.159 736.694 423.704C738.198 425.209 739.967 425.961 742.001 425.961ZM764.476 432V401.744H771.43L772.162 407.417C773.26 405.465 774.744 403.92 776.615 402.781C778.526 401.602 780.763 401.012 783.325 401.012V409.247H781.129C779.421 409.247 777.896 409.511 776.554 410.04C775.212 410.569 774.154 411.484 773.382 412.785C772.65 414.086 772.284 415.896 772.284 418.214V432H764.476ZM799.092 432.732C796.49 432.732 794.355 432.325 792.687 431.512C791.02 430.658 789.78 429.54 788.966 428.157C788.153 426.774 787.746 425.249 787.746 423.582C787.746 420.776 788.844 418.499 791.04 416.75C793.236 415.001 796.53 414.127 800.922 414.127H808.608V413.395C808.608 411.321 808.019 409.796 806.839 408.82C805.66 407.844 804.196 407.356 802.447 407.356C800.861 407.356 799.479 407.742 798.299 408.515C797.12 409.247 796.388 410.345 796.103 411.809H788.478C788.682 409.613 789.414 407.702 790.674 406.075C791.976 404.448 793.643 403.208 795.676 402.354C797.71 401.459 799.987 401.012 802.508 401.012C806.819 401.012 810.215 402.09 812.695 404.245C815.176 406.4 816.416 409.45 816.416 413.395V432H809.767L809.035 427.12C808.141 428.747 806.88 430.089 805.253 431.146C803.667 432.203 801.614 432.732 799.092 432.732ZM800.861 426.632C803.098 426.632 804.826 425.9 806.046 424.436C807.307 422.972 808.1 421.162 808.425 419.007H801.776C799.702 419.007 798.218 419.393 797.323 420.166C796.429 420.898 795.981 421.813 795.981 422.911C795.981 424.09 796.429 425.005 797.323 425.656C798.218 426.307 799.397 426.632 800.861 426.632ZM836.677 422.972C835.213 422.972 833.851 422.809 832.59 422.484L830.333 424.741C831.025 425.107 831.96 425.412 833.139 425.656C834.319 425.9 836.23 426.144 838.873 426.388C842.899 426.754 845.827 427.71 847.657 429.255C849.487 430.8 850.402 432.935 850.402 435.66C850.402 437.449 849.914 439.137 848.938 440.723C847.962 442.35 846.458 443.651 844.424 444.627C842.391 445.644 839.788 446.152 836.616 446.152C832.306 446.152 828.829 445.339 826.185 443.712C823.542 442.126 822.22 439.727 822.22 436.514C822.22 433.789 823.542 431.431 826.185 429.438C825.372 429.072 824.66 428.686 824.05 428.279C823.481 427.872 822.973 427.445 822.525 426.998V425.595L827.832 419.983C825.474 417.909 824.294 415.245 824.294 411.992C824.294 409.959 824.782 408.108 825.758 406.441C826.775 404.774 828.198 403.452 830.028 402.476C831.858 401.5 834.075 401.012 836.677 401.012C838.385 401.012 839.971 401.256 841.435 401.744H852.903V406.502L847.718 406.868C848.532 408.413 848.938 410.121 848.938 411.992C848.938 414.025 848.45 415.876 847.474 417.543C846.498 419.21 845.075 420.532 843.204 421.508C841.374 422.484 839.199 422.972 836.677 422.972ZM836.677 416.994C838.263 416.994 839.565 416.567 840.581 415.713C841.639 414.859 842.167 413.639 842.167 412.053C842.167 410.467 841.639 409.247 840.581 408.393C839.565 407.539 838.263 407.112 836.677 407.112C835.01 407.112 833.668 407.539 832.651 408.393C831.635 409.247 831.126 410.467 831.126 412.053C831.126 413.639 831.635 414.859 832.651 415.713C833.668 416.567 835.01 416.994 836.677 416.994ZM829.357 435.721C829.357 437.226 830.049 438.344 831.431 439.076C832.855 439.849 834.583 440.235 836.616 440.235C838.568 440.235 840.154 439.828 841.374 439.015C842.594 438.242 843.204 437.185 843.204 435.843C843.204 434.745 842.798 433.83 841.984 433.098C841.212 432.366 839.646 431.919 837.287 431.756C835.62 431.634 834.075 431.451 832.651 431.207C831.472 431.858 830.618 432.569 830.089 433.342C829.601 434.115 829.357 434.908 829.357 435.721ZM872.106 432.732C869.056 432.732 866.352 432.081 863.993 430.78C861.635 429.479 859.784 427.649 858.442 425.29C857.1 422.931 856.429 420.207 856.429 417.116C856.429 413.985 857.08 411.199 858.381 408.759C859.723 406.319 861.553 404.428 863.871 403.086C866.23 401.703 868.995 401.012 872.167 401.012C875.136 401.012 877.759 401.663 880.036 402.964C882.314 404.265 884.083 406.055 885.343 408.332C886.645 410.569 887.295 413.07 887.295 415.835C887.295 416.282 887.275 416.75 887.234 417.238C887.234 417.726 887.214 418.234 887.173 418.763H864.176C864.339 421.122 865.152 422.972 866.616 424.314C868.121 425.656 869.931 426.327 872.045 426.327C873.631 426.327 874.953 425.981 876.01 425.29C877.108 424.558 877.922 423.623 878.45 422.484H886.38C885.811 424.395 884.855 426.144 883.513 427.73C882.212 429.275 880.585 430.495 878.633 431.39C876.722 432.285 874.546 432.732 872.106 432.732ZM872.167 407.356C870.256 407.356 868.568 407.905 867.104 409.003C865.64 410.06 864.705 411.687 864.298 413.883H879.365C879.243 411.89 878.511 410.304 877.169 409.125C875.827 407.946 874.16 407.356 872.167 407.356Z" fill="white"/>
<path fill-rule="evenodd" clip-rule="evenodd" d="M634.919 183.925C634.919 161.875 652.794 144 674.844 144L775.359 144C797.409 144 815.284 161.875 815.284 183.925V210.383C815.284 213.464 814.297 216.316 812.623 218.638C812.138 218.054 811.631 217.488 811.104 216.939C807.968 213.675 804.172 211.117 799.97 209.433C795.859 207.787 791.452 207.016 787.029 207.167V183.925C787.029 177.48 781.804 172.255 775.359 172.255L674.844 172.255C668.399 172.255 663.174 177.48 663.174 183.925V213.791C663.174 220.236 668.399 225.461 674.844 225.461H775.359C797.409 225.461 815.284 243.336 815.284 265.386L815.284 288.075C815.284 310.125 797.409 328 775.359 328H674.627C652.577 328 634.702 310.125 634.702 288.075V268.766C634.702 265.282 635.963 262.093 638.054 259.629C638.561 260.258 639.094 260.866 639.654 261.452C642.484 264.416 645.913 266.742 649.712 268.277C653.511 269.812 657.593 270.52 661.687 270.355C662.112 270.338 662.535 270.311 662.957 270.276V288.075C662.957 294.52 668.182 299.745 674.627 299.745H775.359C781.804 299.745 787.029 294.52 787.029 288.075L787.029 265.386C787.029 258.941 781.804 253.716 775.359 253.716H674.844C663.192 253.716 652.706 248.725 645.408 240.764C645.292 240.573 645.178 240.38 645.065 240.184L644.871 240.167C638.676 233.133 634.919 223.901 634.919 213.791V183.925Z" fill="#00DC82"/>
<path fill-rule="evenodd" clip-rule="evenodd" d="M623.66 159.942C622.229 163.886 621.591 168.07 621.78 172.255H505.141C498.696 172.255 493.472 177.48 493.472 183.925V225.461H579.383C587.185 225.461 593.511 231.786 593.511 239.589C593.511 247.391 587.185 253.716 579.383 253.716H493.431L493.255 313.913C493.232 321.716 486.889 328.023 479.086 328C471.284 327.977 464.977 321.634 465 313.831L465.216 239.589V239.568V183.925C465.216 161.875 483.091 144 505.141 144H631.979C633.252 144 634.486 144.168 635.66 144.484C633.912 145.677 632.283 147.044 630.798 148.567C627.638 151.809 625.205 155.686 623.66 159.942Z" fill="#00DC82"/>
<defs>
<radialGradient id="paint0_radial_1853_115077" cx="0" cy="0" r="1" gradientUnits="userSpaceOnUse" gradientTransform="translate(640 -1.85752e-05) rotate(90) scale(399 869.777)">
<stop stop-color="#02473E"/>
<stop offset="1" stop-color="#020420"/>
</radialGradient>
</defs>
</svg>
