<svg width="1031" height="1125" viewBox="0 0 1031 1125" fill="none" xmlns="http://www.w3.org/2000/svg">
<path d="M83.2938 654.598C95.3757 666.679 111.762 673.467 128.849 673.467H901.941C935.149 673.467 966.365 688.088 986.401 705.679C1013.33 729.323 1030.79 763.597 1030.79 802.316V995.589C1030.79 1029.76 1017.21 1062.53 993.051 1086.7C968.887 1110.86 936.114 1124.44 901.941 1124.44H128.849C94.6759 1124.44 61.9027 1110.86 37.7389 1086.7C13.5751 1062.53 0 1029.76 0 995.589V767C10.5 781.5 26.8775 807.654 64.4244 814.5V995.589C64.4244 1012.68 71.2119 1029.06 83.2938 1041.14C95.3757 1053.23 111.762 1060.01 128.849 1060.01H901.941C919.027 1060.01 935.414 1053.23 947.496 1041.14C959.578 1029.06 966.365 1012.68 966.365 995.589V802.316C966.365 785.229 959.578 768.843 947.496 756.761C935.414 744.679 919.027 737.891 901.941 737.891H128.849C89.5 737.891 69.5 728 44.4528 705.679C19.4056 683.358 0 647.762 0 609.043V415.77C0 381.597 13.5751 348.824 37.7389 324.66L497.474 12.1808C508.29 4.82898 522.5 4.82899 533.316 12.1808L993.051 324.66C1017.21 348.824 1030.79 381.597 1030.79 415.77V644.32C1011.28 617.215 995.651 606.295 966.365 596.32V415.77C966.365 398.683 959.578 382.297 947.496 370.215L533.182 91.6593C522.426 84.4278 508.363 84.4278 497.607 91.6593L83.2938 370.215C71.2119 382.297 64.4244 398.683 64.4244 415.77V609.043C64.4244 626.129 71.2119 642.516 83.2938 654.598Z" fill="#00DC82"/>
<path d="M289.909 995.589C343.28 995.589 386.546 952.323 386.546 898.952C386.546 845.582 343.28 802.316 289.909 802.316C236.539 802.316 193.273 845.582 193.273 898.952C193.273 952.323 236.539 995.589 289.909 995.589Z" fill="#108775"/>
<path d="M289.909 609.043C343.28 609.043 386.546 565.777 386.546 512.406C386.546 459.035 343.28 415.77 289.909 415.77C236.539 415.77 193.273 459.035 193.273 512.406C193.273 565.777 236.539 609.043 289.909 609.043Z" fill="#108775"/>
<path fill-rule="evenodd" clip-rule="evenodd" d="M773.092 820.027C773.092 810.245 781.022 802.316 790.803 802.316H819.805C829.587 802.316 837.517 810.245 837.517 820.027V977.878C837.517 987.659 829.587 995.589 819.805 995.589H790.803C781.022 995.589 773.092 987.659 773.092 977.878V820.027ZM644.243 820.027C644.243 810.245 652.173 802.316 661.955 802.316H690.957C700.738 802.316 708.668 810.245 708.668 820.027V977.878C708.668 987.659 700.738 995.589 690.957 995.589H661.955C652.173 995.589 644.243 987.659 644.243 977.878V820.027ZM773.092 433.481C773.092 423.699 781.022 415.77 790.803 415.77H819.805C829.587 415.77 837.517 423.699 837.517 433.481V591.331C837.517 601.113 829.587 609.043 819.805 609.043H790.803C781.022 609.043 773.092 601.113 773.092 591.331V433.481ZM644.243 433.481C644.243 423.699 652.173 415.77 661.955 415.77H690.957C700.738 415.77 708.668 423.699 708.668 433.481V591.331C708.668 601.113 700.738 609.043 690.957 609.043H661.955C652.173 609.043 644.243 601.113 644.243 591.331V433.481Z" fill="#2E495E"/>
</svg>
