<svg width="1280" height="640" viewBox="0 0 1280 640" fill="none" xmlns="http://www.w3.org/2000/svg">
<rect width="1280" height="640" rx="60" fill="url(#paint0_radial_1735_36)"/>
<path d="M326.414 530V509H339.764V511.58H329.594V518.12H338.864V520.64H329.594V527.42H339.764V530H326.414ZM348.473 530.36C347.213 530.36 346.173 530.15 345.353 529.73C344.533 529.31 343.923 528.76 343.523 528.08C343.123 527.38 342.923 526.62 342.923 525.8C342.923 524.36 343.483 523.22 344.603 522.38C345.723 521.54 347.323 521.12 349.403 521.12H353.303V520.85C353.303 519.69 352.983 518.82 352.343 518.24C351.723 517.66 350.913 517.37 349.913 517.37C349.033 517.37 348.263 517.59 347.603 518.03C346.963 518.45 346.573 519.08 346.433 519.92H343.253C343.353 518.84 343.713 517.92 344.333 517.16C344.973 516.38 345.773 515.79 346.733 515.39C347.713 514.97 348.783 514.76 349.943 514.76C352.023 514.76 353.633 515.31 354.773 516.41C355.913 517.49 356.483 518.97 356.483 520.85V530H353.723L353.453 527.45C353.033 528.27 352.423 528.96 351.623 529.52C350.823 530.08 349.773 530.36 348.473 530.36ZM349.103 527.78C349.963 527.78 350.683 527.58 351.263 527.18C351.863 526.76 352.323 526.21 352.643 525.53C352.983 524.85 353.193 524.1 353.273 523.28H349.733C348.473 523.28 347.573 523.5 347.033 523.94C346.513 524.38 346.253 524.93 346.253 525.59C346.253 526.27 346.503 526.81 347.003 527.21C347.523 527.59 348.223 527.78 349.103 527.78ZM366.131 530.36C364.251 530.36 362.701 529.9 361.481 528.98C360.261 528.06 359.561 526.84 359.381 525.32H362.591C362.751 526 363.131 526.59 363.731 527.09C364.331 527.57 365.121 527.81 366.101 527.81C367.061 527.81 367.761 527.61 368.201 527.21C368.641 526.81 368.861 526.35 368.861 525.83C368.861 525.07 368.551 524.56 367.931 524.3C367.331 524.02 366.491 523.77 365.411 523.55C364.571 523.37 363.731 523.13 362.891 522.83C362.071 522.53 361.381 522.11 360.821 521.57C360.281 521.01 360.011 520.26 360.011 519.32C360.011 518.02 360.511 516.94 361.511 516.08C362.511 515.2 363.911 514.76 365.711 514.76C367.371 514.76 368.711 515.16 369.731 515.96C370.771 516.76 371.381 517.89 371.561 519.35H368.501C368.401 518.71 368.101 518.21 367.601 517.85C367.121 517.49 366.471 517.31 365.651 517.31C364.851 517.31 364.231 517.48 363.791 517.82C363.351 518.14 363.131 518.56 363.131 519.08C363.131 519.6 363.431 520.01 364.031 520.31C364.651 520.61 365.461 520.88 366.461 521.12C367.461 521.34 368.381 521.6 369.221 521.9C370.081 522.18 370.771 522.6 371.291 523.16C371.811 523.72 372.071 524.54 372.071 525.62C372.091 526.98 371.561 528.11 370.481 529.01C369.421 529.91 367.971 530.36 366.131 530.36ZM376.55 536.6L380.12 528.77H379.25L373.37 515.12H376.82L381.38 526.13L386.15 515.12H389.51L379.91 536.6H376.55ZM405.623 530.36C403.743 530.36 402.193 529.9 400.973 528.98C399.753 528.06 399.053 526.84 398.873 525.32H402.083C402.243 526 402.623 526.59 403.223 527.09C403.823 527.57 404.613 527.81 405.593 527.81C406.553 527.81 407.253 527.61 407.693 527.21C408.133 526.81 408.353 526.35 408.353 525.83C408.353 525.07 408.043 524.56 407.423 524.3C406.823 524.02 405.983 523.77 404.903 523.55C404.063 523.37 403.223 523.13 402.383 522.83C401.563 522.53 400.873 522.11 400.313 521.57C399.773 521.01 399.503 520.26 399.503 519.32C399.503 518.02 400.003 516.94 401.003 516.08C402.003 515.2 403.403 514.76 405.203 514.76C406.863 514.76 408.203 515.16 409.223 515.96C410.263 516.76 410.873 517.89 411.053 519.35H407.993C407.893 518.71 407.593 518.21 407.093 517.85C406.613 517.49 405.963 517.31 405.143 517.31C404.343 517.31 403.723 517.48 403.283 517.82C402.843 518.14 402.623 518.56 402.623 519.08C402.623 519.6 402.923 520.01 403.523 520.31C404.143 520.61 404.953 520.88 405.953 521.12C406.953 521.34 407.873 521.6 408.713 521.9C409.573 522.18 410.263 522.6 410.783 523.16C411.303 523.72 411.563 524.54 411.563 525.62C411.583 526.98 411.053 528.11 409.973 529.01C408.913 529.91 407.463 530.36 405.623 530.36ZM421.994 530.36C420.574 530.36 419.294 530.04 418.154 529.4C417.034 528.74 416.144 527.83 415.484 526.67C414.824 525.49 414.494 524.12 414.494 522.56C414.494 521 414.824 519.64 415.484 518.48C416.164 517.3 417.074 516.39 418.214 515.75C419.354 515.09 420.624 514.76 422.024 514.76C423.444 514.76 424.714 515.09 425.834 515.75C426.974 516.39 427.874 517.3 428.534 518.48C429.214 519.64 429.554 521 429.554 522.56C429.554 524.12 429.214 525.49 428.534 526.67C427.874 527.83 426.974 528.74 425.834 529.4C424.694 530.04 423.414 530.36 421.994 530.36ZM421.994 527.63C422.754 527.63 423.454 527.44 424.094 527.06C424.754 526.68 425.284 526.12 425.684 525.38C426.084 524.62 426.284 523.68 426.284 522.56C426.284 521.44 426.084 520.51 425.684 519.77C425.304 519.01 424.784 518.44 424.124 518.06C423.484 517.68 422.784 517.49 422.024 517.49C421.264 517.49 420.554 517.68 419.894 518.06C419.254 518.44 418.734 519.01 418.334 519.77C417.934 520.51 417.734 521.44 417.734 522.56C417.734 523.68 417.934 524.62 418.334 525.38C418.734 526.12 419.254 526.68 419.894 527.06C420.534 527.44 421.234 527.63 421.994 527.63ZM432.993 530V508.4H436.173V530H432.993ZM445.69 530.36C443.89 530.36 442.47 529.8 441.43 528.68C440.41 527.56 439.9 525.89 439.9 523.67V515.12H443.08V523.34C443.08 526.22 444.26 527.66 446.62 527.66C447.8 527.66 448.77 527.24 449.53 526.4C450.29 525.56 450.67 524.36 450.67 522.8V515.12H453.85V530H451.03L450.79 527.39C450.33 528.31 449.65 529.04 448.75 529.58C447.87 530.1 446.85 530.36 445.69 530.36ZM464.136 530C462.676 530 461.516 529.65 460.656 528.95C459.796 528.23 459.366 526.96 459.366 525.14V517.79H456.816V515.12H459.366L459.756 511.34H462.546V515.12H466.746V517.79H462.546V525.14C462.546 525.96 462.716 526.53 463.056 526.85C463.416 527.15 464.026 527.3 464.886 527.3H466.596V530H464.136ZM471.825 512.3C471.225 512.3 470.725 512.12 470.325 511.76C469.945 511.38 469.755 510.91 469.755 510.35C469.755 509.79 469.945 509.33 470.325 508.97C470.725 508.59 471.225 508.4 471.825 508.4C472.425 508.4 472.915 508.59 473.295 508.97C473.695 509.33 473.895 509.79 473.895 510.35C473.895 510.91 473.695 511.38 473.295 511.76C472.915 512.12 472.425 512.3 471.825 512.3ZM470.235 530V515.12H473.415V530H470.235ZM484.573 530.36C483.153 530.36 481.873 530.04 480.733 529.4C479.613 528.74 478.723 527.83 478.063 526.67C477.403 525.49 477.073 524.12 477.073 522.56C477.073 521 477.403 519.64 478.063 518.48C478.743 517.3 479.653 516.39 480.793 515.75C481.933 515.09 483.203 514.76 484.603 514.76C486.023 514.76 487.293 515.09 488.413 515.75C489.553 516.39 490.453 517.3 491.113 518.48C491.793 519.64 492.133 521 492.133 522.56C492.133 524.12 491.793 525.49 491.113 526.67C490.453 527.83 489.553 528.74 488.413 529.4C487.273 530.04 485.993 530.36 484.573 530.36ZM484.573 527.63C485.333 527.63 486.033 527.44 486.673 527.06C487.333 526.68 487.863 526.12 488.263 525.38C488.663 524.62 488.863 523.68 488.863 522.56C488.863 521.44 488.663 520.51 488.263 519.77C487.883 519.01 487.363 518.44 486.703 518.06C486.063 517.68 485.363 517.49 484.603 517.49C483.843 517.49 483.133 517.68 482.473 518.06C481.833 518.44 481.313 519.01 480.913 519.77C480.513 520.51 480.313 521.44 480.313 522.56C480.313 523.68 480.513 524.62 480.913 525.38C481.313 526.12 481.833 526.68 482.473 527.06C483.113 527.44 483.813 527.63 484.573 527.63ZM495.572 530V515.12H498.392L498.632 517.73C499.092 516.81 499.762 516.09 500.642 515.57C501.542 515.03 502.572 514.76 503.732 514.76C505.532 514.76 506.942 515.32 507.962 516.44C509.002 517.56 509.522 519.23 509.522 521.45V530H506.372V521.78C506.372 518.9 505.192 517.46 502.832 517.46C501.652 517.46 500.672 517.88 499.892 518.72C499.132 519.56 498.752 520.76 498.752 522.32V530H495.572ZM527.065 530C525.605 530 524.445 529.65 523.585 528.95C522.725 528.23 522.295 526.96 522.295 525.14V517.79H519.745V515.12H522.295L522.685 511.34H525.475V515.12H529.675V517.79H525.475V525.14C525.475 525.96 525.645 526.53 525.985 526.85C526.345 527.15 526.955 527.3 527.815 527.3H529.525V530H527.065ZM539.533 530.36C538.113 530.36 536.833 530.04 535.693 529.4C534.573 528.74 533.683 527.83 533.023 526.67C532.363 525.49 532.033 524.12 532.033 522.56C532.033 521 532.363 519.64 533.023 518.48C533.703 517.3 534.613 516.39 535.753 515.75C536.893 515.09 538.163 514.76 539.563 514.76C540.983 514.76 542.253 515.09 543.373 515.75C544.513 516.39 545.413 517.3 546.073 518.48C546.753 519.64 547.093 521 547.093 522.56C547.093 524.12 546.753 525.49 546.073 526.67C545.413 527.83 544.513 528.74 543.373 529.4C542.233 530.04 540.953 530.36 539.533 530.36ZM539.533 527.63C540.293 527.63 540.993 527.44 541.633 527.06C542.293 526.68 542.823 526.12 543.223 525.38C543.623 524.62 543.823 523.68 543.823 522.56C543.823 521.44 543.623 520.51 543.223 519.77C542.843 519.01 542.323 518.44 541.663 518.06C541.023 517.68 540.323 517.49 539.563 517.49C538.803 517.49 538.093 517.68 537.433 518.06C536.793 518.44 536.273 519.01 535.873 519.77C535.473 520.51 535.273 521.44 535.273 522.56C535.273 523.68 535.473 524.62 535.873 525.38C536.273 526.12 536.793 526.68 537.433 527.06C538.073 527.44 538.773 527.63 539.533 527.63ZM564.031 530.36C562.151 530.36 560.601 529.9 559.381 528.98C558.161 528.06 557.461 526.84 557.281 525.32H560.491C560.651 526 561.031 526.59 561.631 527.09C562.231 527.57 563.021 527.81 564.001 527.81C564.961 527.81 565.661 527.61 566.101 527.21C566.541 526.81 566.761 526.35 566.761 525.83C566.761 525.07 566.451 524.56 565.831 524.3C565.231 524.02 564.391 523.77 563.311 523.55C562.471 523.37 561.631 523.13 560.791 522.83C559.971 522.53 559.281 522.11 558.721 521.57C558.181 521.01 557.911 520.26 557.911 519.32C557.911 518.02 558.411 516.94 559.411 516.08C560.411 515.2 561.811 514.76 563.611 514.76C565.271 514.76 566.611 515.16 567.631 515.96C568.671 516.76 569.281 517.89 569.461 519.35H566.401C566.301 518.71 566.001 518.21 565.501 517.85C565.021 517.49 564.371 517.31 563.551 517.31C562.751 517.31 562.131 517.48 561.691 517.82C561.251 518.14 561.031 518.56 561.031 519.08C561.031 519.6 561.331 520.01 561.931 520.31C562.551 520.61 563.361 520.88 564.361 521.12C565.361 521.34 566.281 521.6 567.121 521.9C567.981 522.18 568.671 522.6 569.191 523.16C569.711 523.72 569.971 524.54 569.971 525.62C569.991 526.98 569.461 528.11 568.381 529.01C567.321 529.91 565.871 530.36 564.031 530.36ZM579.126 530C577.666 530 576.506 529.65 575.646 528.95C574.786 528.23 574.356 526.96 574.356 525.14V517.79H571.806V515.12H574.356L574.746 511.34H577.536V515.12H581.736V517.79H577.536V525.14C577.536 525.96 577.706 526.53 578.046 526.85C578.406 527.15 579.016 527.3 579.876 527.3H581.586V530H579.126ZM591.594 530.36C590.174 530.36 588.894 530.04 587.754 529.4C586.634 528.74 585.744 527.83 585.084 526.67C584.424 525.49 584.094 524.12 584.094 522.56C584.094 521 584.424 519.64 585.084 518.48C585.764 517.3 586.674 516.39 587.814 515.75C588.954 515.09 590.224 514.76 591.624 514.76C593.044 514.76 594.314 515.09 595.434 515.75C596.574 516.39 597.474 517.3 598.134 518.48C598.814 519.64 599.154 521 599.154 522.56C599.154 524.12 598.814 525.49 598.134 526.67C597.474 527.83 596.574 528.74 595.434 529.4C594.294 530.04 593.014 530.36 591.594 530.36ZM591.594 527.63C592.354 527.63 593.054 527.44 593.694 527.06C594.354 526.68 594.884 526.12 595.284 525.38C595.684 524.62 595.884 523.68 595.884 522.56C595.884 521.44 595.684 520.51 595.284 519.77C594.904 519.01 594.384 518.44 593.724 518.06C593.084 517.68 592.384 517.49 591.624 517.49C590.864 517.49 590.154 517.68 589.494 518.06C588.854 518.44 588.334 519.01 587.934 519.77C587.534 520.51 587.334 521.44 587.334 522.56C587.334 523.68 587.534 524.62 587.934 525.38C588.334 526.12 588.854 526.68 589.494 527.06C590.134 527.44 590.834 527.63 591.594 527.63ZM602.593 530V515.12H605.443L605.713 517.94C606.233 516.96 606.953 516.19 607.873 515.63C608.813 515.05 609.943 514.76 611.263 514.76V518.09H610.393C609.513 518.09 608.723 518.24 608.023 518.54C607.343 518.82 606.793 519.31 606.373 520.01C605.973 520.69 605.773 521.64 605.773 522.86V530H602.593ZM620.539 530.36C619.079 530.36 617.779 530.04 616.639 529.4C615.519 528.74 614.639 527.83 613.999 526.67C613.359 525.51 613.039 524.16 613.039 522.62C613.039 521.06 613.349 519.69 613.969 518.51C614.609 517.33 615.489 516.41 616.609 515.75C617.749 515.09 619.069 514.76 620.569 514.76C622.029 514.76 623.299 515.09 624.379 515.75C625.459 516.39 626.299 517.25 626.899 518.33C627.499 519.41 627.799 520.6 627.799 521.9C627.799 522.1 627.789 522.32 627.769 522.56C627.769 522.78 627.759 523.03 627.739 523.31H616.159C616.259 524.75 616.729 525.85 617.569 526.61C618.429 527.35 619.419 527.72 620.539 527.72C621.439 527.72 622.189 527.52 622.789 527.12C623.409 526.7 623.869 526.14 624.169 525.44H627.349C626.949 526.84 626.149 528.01 624.949 528.95C623.769 529.89 622.299 530.36 620.539 530.36ZM620.539 517.37C619.479 517.37 618.539 517.69 617.719 518.33C616.899 518.95 616.399 519.89 616.219 521.15H624.619C624.559 519.99 624.149 519.07 623.389 518.39C622.629 517.71 621.679 517.37 620.539 517.37ZM639.407 530V517.79H637.277V515.12H639.407V512.96C639.407 511.34 639.807 510.18 640.607 509.48C641.427 508.76 642.577 508.4 644.057 508.4H645.617V511.1H644.537C643.837 511.1 643.337 511.25 643.037 511.55C642.737 511.83 642.587 512.31 642.587 512.99V515.12H652.007V530H648.827V517.79H642.587V530H639.407ZM650.447 512.63C649.847 512.63 649.347 512.45 648.947 512.09C648.567 511.71 648.377 511.23 648.377 510.65C648.377 510.09 648.567 509.63 648.947 509.27C649.347 508.91 649.847 508.73 650.447 508.73C651.047 508.73 651.537 508.91 651.917 509.27C652.317 509.63 652.517 510.09 652.517 510.65C652.517 511.23 652.317 511.71 651.917 512.09C651.537 512.45 651.047 512.63 650.447 512.63ZM656.236 530V508.4H659.416V530H656.236ZM670.403 530.36C668.943 530.36 667.643 530.04 666.503 529.4C665.383 528.74 664.503 527.83 663.863 526.67C663.223 525.51 662.903 524.16 662.903 522.62C662.903 521.06 663.213 519.69 663.833 518.51C664.473 517.33 665.353 516.41 666.473 515.75C667.613 515.09 668.933 514.76 670.433 514.76C671.893 514.76 673.163 515.09 674.243 515.75C675.323 516.39 676.163 517.25 676.763 518.33C677.363 519.41 677.663 520.6 677.663 521.9C677.663 522.1 677.653 522.32 677.633 522.56C677.633 522.78 677.623 523.03 677.603 523.31H666.023C666.123 524.75 666.593 525.85 667.433 526.61C668.293 527.35 669.283 527.72 670.403 527.72C671.303 527.72 672.053 527.52 672.653 527.12C673.273 526.7 673.733 526.14 674.033 525.44H677.213C676.813 526.84 676.013 528.01 674.813 528.95C673.633 529.89 672.163 530.36 670.403 530.36ZM670.403 517.37C669.343 517.37 668.403 517.69 667.583 518.33C666.763 518.95 666.263 519.89 666.083 521.15H674.483C674.423 519.99 674.013 519.07 673.253 518.39C672.493 517.71 671.543 517.37 670.403 517.37ZM686.902 530.36C685.022 530.36 683.472 529.9 682.252 528.98C681.032 528.06 680.332 526.84 680.152 525.32H683.362C683.522 526 683.902 526.59 684.502 527.09C685.102 527.57 685.892 527.81 686.872 527.81C687.832 527.81 688.532 527.61 688.972 527.21C689.412 526.81 689.632 526.35 689.632 525.83C689.632 525.07 689.322 524.56 688.702 524.3C688.102 524.02 687.262 523.77 686.182 523.55C685.342 523.37 684.502 523.13 683.662 522.83C682.842 522.53 682.152 522.11 681.592 521.57C681.052 521.01 680.782 520.26 680.782 519.32C680.782 518.02 681.282 516.94 682.282 516.08C683.282 515.2 684.682 514.76 686.482 514.76C688.142 514.76 689.482 515.16 690.502 515.96C691.542 516.76 692.152 517.89 692.332 519.35H689.272C689.172 518.71 688.872 518.21 688.372 517.85C687.892 517.49 687.242 517.31 686.422 517.31C685.622 517.31 685.002 517.48 684.562 517.82C684.122 518.14 683.902 518.56 683.902 519.08C683.902 519.6 684.202 520.01 684.802 520.31C685.422 520.61 686.232 520.88 687.232 521.12C688.232 521.34 689.152 521.6 689.992 521.9C690.852 522.18 691.542 522.6 692.062 523.16C692.582 523.72 692.842 524.54 692.842 525.62C692.862 526.98 692.332 528.11 691.252 529.01C690.192 529.91 688.742 530.36 686.902 530.36ZM705.672 512.3C705.072 512.3 704.572 512.12 704.172 511.76C703.792 511.38 703.602 510.91 703.602 510.35C703.602 509.79 703.792 509.33 704.172 508.97C704.572 508.59 705.072 508.4 705.672 508.4C706.272 508.4 706.762 508.59 707.142 508.97C707.542 509.33 707.742 509.79 707.742 510.35C707.742 510.91 707.542 511.38 707.142 511.76C706.762 512.12 706.272 512.3 705.672 512.3ZM704.082 530V515.12H707.262V530H704.082ZM711.46 530V515.12H714.28L714.52 517.73C714.98 516.81 715.65 516.09 716.53 515.57C717.43 515.03 718.46 514.76 719.62 514.76C721.42 514.76 722.83 515.32 723.85 516.44C724.89 517.56 725.41 519.23 725.41 521.45V530H722.26V521.78C722.26 518.9 721.08 517.46 718.72 517.46C717.54 517.46 716.56 517.88 715.78 518.72C715.02 519.56 714.64 520.76 714.64 522.32V530H711.46ZM738.454 536.6L742.024 528.77H741.154L735.274 515.12H738.724L743.284 526.13L748.054 515.12H751.414L741.814 536.6H738.454ZM759.641 530.36C758.221 530.36 756.941 530.04 755.801 529.4C754.681 528.74 753.791 527.83 753.131 526.67C752.471 525.49 752.141 524.12 752.141 522.56C752.141 521 752.471 519.64 753.131 518.48C753.811 517.3 754.721 516.39 755.861 515.75C757.001 515.09 758.271 514.76 759.671 514.76C761.091 514.76 762.361 515.09 763.481 515.75C764.621 516.39 765.521 517.3 766.181 518.48C766.861 519.64 767.201 521 767.201 522.56C767.201 524.12 766.861 525.49 766.181 526.67C765.521 527.83 764.621 528.74 763.481 529.4C762.341 530.04 761.061 530.36 759.641 530.36ZM759.641 527.63C760.401 527.63 761.101 527.44 761.741 527.06C762.401 526.68 762.931 526.12 763.331 525.38C763.731 524.62 763.931 523.68 763.931 522.56C763.931 521.44 763.731 520.51 763.331 519.77C762.951 519.01 762.431 518.44 761.771 518.06C761.131 517.68 760.431 517.49 759.671 517.49C758.911 517.49 758.201 517.68 757.541 518.06C756.901 518.44 756.381 519.01 755.981 519.77C755.581 520.51 755.381 521.44 755.381 522.56C755.381 523.68 755.581 524.62 755.981 525.38C756.381 526.12 756.901 526.68 757.541 527.06C758.181 527.44 758.881 527.63 759.641 527.63ZM776.13 530.36C774.33 530.36 772.91 529.8 771.87 528.68C770.85 527.56 770.34 525.89 770.34 523.67V515.12H773.52V523.34C773.52 526.22 774.7 527.66 777.06 527.66C778.24 527.66 779.21 527.24 779.97 526.4C780.73 525.56 781.11 524.36 781.11 522.8V515.12H784.29V530H781.47L781.23 527.39C780.77 528.31 780.09 529.04 779.19 529.58C778.31 530.1 777.29 530.36 776.13 530.36ZM788.335 530V515.12H791.185L791.455 517.94C791.975 516.96 792.695 516.19 793.615 515.63C794.555 515.05 795.685 514.76 797.005 514.76V518.09H796.135C795.255 518.09 794.465 518.24 793.765 518.54C793.085 518.82 792.535 519.31 792.115 520.01C791.715 520.69 791.515 521.64 791.515 522.86V530H788.335ZM807.41 530V509H810.59L821.12 524.81V509H824.3V530H821.12L810.59 514.19V530H807.41ZM833.933 530.36C832.133 530.36 830.713 529.8 829.673 528.68C828.653 527.56 828.143 525.89 828.143 523.67V515.12H831.323V523.34C831.323 526.22 832.503 527.66 834.863 527.66C836.043 527.66 837.013 527.24 837.773 526.4C838.533 525.56 838.913 524.36 838.913 522.8V515.12H842.093V530H839.273L839.033 527.39C838.573 528.31 837.893 529.04 836.993 529.58C836.113 530.1 835.093 530.36 833.933 530.36ZM844.698 530L849.978 522.56L844.698 515.12H848.088L852.078 520.82L856.038 515.12H859.458L854.178 522.56L859.458 530H856.038L852.078 524.3L848.088 530H844.698ZM868.286 530C866.826 530 865.666 529.65 864.806 528.95C863.946 528.23 863.516 526.96 863.516 525.14V517.79H860.966V515.12H863.516L863.906 511.34H866.696V515.12H870.896V517.79H866.696V525.14C866.696 525.96 866.866 526.53 867.206 526.85C867.566 527.15 868.176 527.3 869.036 527.3H870.746V530H868.286ZM886.774 530.36C885.514 530.36 884.474 530.15 883.654 529.73C882.834 529.31 882.224 528.76 881.824 528.08C881.424 527.38 881.224 526.62 881.224 525.8C881.224 524.36 881.784 523.22 882.904 522.38C884.024 521.54 885.624 521.12 887.704 521.12H891.604V520.85C891.604 519.69 891.284 518.82 890.644 518.24C890.024 517.66 889.214 517.37 888.214 517.37C887.334 517.37 886.564 517.59 885.904 518.03C885.264 518.45 884.874 519.08 884.734 519.92H881.554C881.654 518.84 882.014 517.92 882.634 517.16C883.274 516.38 884.074 515.79 885.034 515.39C886.014 514.97 887.084 514.76 888.244 514.76C890.324 514.76 891.934 515.31 893.074 516.41C894.214 517.49 894.784 518.97 894.784 520.85V530H892.024L891.754 527.45C891.334 528.27 890.724 528.96 889.924 529.52C889.124 530.08 888.074 530.36 886.774 530.36ZM887.404 527.78C888.264 527.78 888.984 527.58 889.564 527.18C890.164 526.76 890.624 526.21 890.944 525.53C891.284 524.85 891.494 524.1 891.574 523.28H888.034C886.774 523.28 885.874 523.5 885.334 523.94C884.814 524.38 884.554 524.93 884.554 525.59C884.554 526.27 884.804 526.81 885.304 527.21C885.824 527.59 886.524 527.78 887.404 527.78ZM898.491 536.6V515.12H901.341L901.671 517.43C902.151 516.73 902.811 516.11 903.651 515.57C904.491 515.03 905.571 514.76 906.891 514.76C908.331 514.76 909.601 515.1 910.701 515.78C911.801 516.46 912.661 517.39 913.281 518.57C913.921 519.75 914.241 521.09 914.241 522.59C914.241 524.09 913.921 525.43 913.281 526.61C912.661 527.77 911.801 528.69 910.701 529.37C909.601 530.03 908.321 530.36 906.861 530.36C905.701 530.36 904.671 530.13 903.771 529.67C902.891 529.21 902.191 528.56 901.671 527.72V536.6H898.491ZM906.321 527.6C907.681 527.6 908.801 527.14 909.681 526.22C910.561 525.28 911.001 524.06 911.001 522.56C911.001 521.58 910.801 520.71 910.401 519.95C910.001 519.19 909.451 518.6 908.751 518.18C908.051 517.74 907.241 517.52 906.321 517.52C904.961 517.52 903.841 517.99 902.961 518.93C902.101 519.87 901.671 521.08 901.671 522.56C901.671 524.06 902.101 525.28 902.961 526.22C903.841 527.14 904.961 527.6 906.321 527.6ZM917.681 536.6V515.12H920.531L920.861 517.43C921.341 516.73 922.001 516.11 922.841 515.57C923.681 515.03 924.761 514.76 926.081 514.76C927.521 514.76 928.791 515.1 929.891 515.78C930.991 516.46 931.851 517.39 932.471 518.57C933.111 519.75 933.431 521.09 933.431 522.59C933.431 524.09 933.111 525.43 932.471 526.61C931.851 527.77 930.991 528.69 929.891 529.37C928.791 530.03 927.511 530.36 926.051 530.36C924.891 530.36 923.861 530.13 922.961 529.67C922.081 529.21 921.381 528.56 920.861 527.72V536.6H917.681ZM925.511 527.6C926.871 527.6 927.991 527.14 928.871 526.22C929.751 525.28 930.191 524.06 930.191 522.56C930.191 521.58 929.991 520.71 929.591 519.95C929.191 519.19 928.641 518.6 927.941 518.18C927.241 517.74 926.431 517.52 925.511 517.52C924.151 517.52 923.031 517.99 922.151 518.93C921.291 519.87 920.861 521.08 920.861 522.56C920.861 524.06 921.291 525.28 922.151 526.22C923.031 527.14 924.151 527.6 925.511 527.6ZM942.81 530.36C940.93 530.36 939.38 529.9 938.16 528.98C936.94 528.06 936.24 526.84 936.06 525.32H939.27C939.43 526 939.81 526.59 940.41 527.09C941.01 527.57 941.8 527.81 942.78 527.81C943.74 527.81 944.44 527.61 944.88 527.21C945.32 526.81 945.54 526.35 945.54 525.83C945.54 525.07 945.23 524.56 944.61 524.3C944.01 524.02 943.17 523.77 942.09 523.55C941.25 523.37 940.41 523.13 939.57 522.83C938.75 522.53 938.06 522.11 937.5 521.57C936.96 521.01 936.69 520.26 936.69 519.32C936.69 518.02 937.19 516.94 938.19 516.08C939.19 515.2 940.59 514.76 942.39 514.76C944.05 514.76 945.39 515.16 946.41 515.96C947.45 516.76 948.06 517.89 948.24 519.35H945.18C945.08 518.71 944.78 518.21 944.28 517.85C943.8 517.49 943.15 517.31 942.33 517.31C941.53 517.31 940.91 517.48 940.47 517.82C940.03 518.14 939.81 518.56 939.81 519.08C939.81 519.6 940.11 520.01 940.71 520.31C941.33 520.61 942.14 520.88 943.14 521.12C944.14 521.34 945.06 521.6 945.9 521.9C946.76 522.18 947.45 522.6 947.97 523.16C948.49 523.72 948.75 524.54 948.75 525.62C948.77 526.98 948.24 528.11 947.16 529.01C946.1 529.91 944.65 530.36 942.81 530.36ZM953.482 530.18C952.882 530.18 952.382 529.99 951.982 529.61C951.602 529.21 951.412 528.74 951.412 528.2C951.412 527.64 951.602 527.17 951.982 526.79C952.382 526.39 952.882 526.19 953.482 526.19C954.082 526.19 954.572 526.39 954.952 526.79C955.332 527.17 955.522 527.64 955.522 528.2C955.522 528.74 955.332 529.21 954.952 529.61C954.572 529.99 954.082 530.18 953.482 530.18Z" fill="#D5E8FF" fill-opacity="0.87"/>
<path d="M372.531 475V432.3H380.339L400.408 462.373V432.3H408.216V475H400.408L380.339 444.988V475H372.531ZM427.657 475.732C423.875 475.732 420.947 474.553 418.873 472.194C416.839 469.835 415.823 466.379 415.823 461.824V444.744H423.57V461.092C423.57 463.695 424.098 465.687 425.156 467.07C426.213 468.453 427.88 469.144 430.158 469.144C432.313 469.144 434.082 468.371 435.465 466.826C436.888 465.281 437.6 463.125 437.6 460.36V444.744H445.408V475H438.515L437.905 469.876C436.969 471.665 435.607 473.089 433.818 474.146C432.069 475.203 430.015 475.732 427.657 475.732ZM450.556 475L461.536 459.872L450.556 444.744H458.913L466.599 455.48L474.224 444.744H482.642L471.601 459.872L482.642 475H474.224L466.599 464.264L458.913 475H450.556ZM501.097 475C497.925 475 495.384 474.227 493.472 472.682C491.561 471.137 490.605 468.392 490.605 464.447V451.271H485.42V444.744H490.605L491.52 436.631H498.413V444.744H506.587V451.271H498.413V464.508C498.413 465.972 498.718 466.989 499.328 467.558C499.979 468.087 501.077 468.351 502.622 468.351H506.404V475H501.097Z" fill="white"/>
<path d="M528.009 475V432.3H535.817L555.886 462.373V432.3H563.694V475H555.886L535.817 444.988V475H528.009ZM575.998 440.047C574.575 440.047 573.396 439.62 572.46 438.766C571.566 437.912 571.118 436.834 571.118 435.533C571.118 434.232 571.566 433.174 572.46 432.361C573.396 431.507 574.575 431.08 575.998 431.08C577.422 431.08 578.581 431.507 579.475 432.361C580.411 433.174 580.878 434.232 580.878 435.533C580.878 436.834 580.411 437.912 579.475 438.766C578.581 439.62 577.422 440.047 575.998 440.047ZM572.094 475V444.744H579.902V475H572.094ZM601.533 475C598.361 475 595.819 474.227 593.908 472.682C591.997 471.137 591.041 468.392 591.041 464.447V451.271H585.856V444.744H591.041L591.956 436.631H598.849V444.744H607.023V451.271H598.849V464.508C598.849 465.972 599.154 466.989 599.764 467.558C600.415 468.087 601.513 468.351 603.058 468.351H606.84V475H601.533ZM613.727 475V444.744H620.681L621.413 450.417C622.511 448.465 623.995 446.92 625.866 445.781C627.777 444.602 630.014 444.012 632.576 444.012V452.247H630.38C628.672 452.247 627.147 452.511 625.805 453.04C624.463 453.569 623.405 454.484 622.633 455.785C621.901 457.086 621.535 458.896 621.535 461.214V475H613.727ZM651.894 475.732C648.966 475.732 646.323 475.061 643.964 473.719C641.646 472.377 639.796 470.527 638.413 468.168C637.071 465.769 636.4 463.003 636.4 459.872C636.4 456.741 637.091 453.996 638.474 451.637C639.857 449.238 641.707 447.367 644.025 446.025C646.384 444.683 649.027 444.012 651.955 444.012C654.842 444.012 657.445 444.683 659.763 446.025C662.122 447.367 663.972 449.238 665.314 451.637C666.697 453.996 667.388 456.741 667.388 459.872C667.388 463.003 666.697 465.769 665.314 468.168C663.972 470.527 662.122 472.377 659.763 473.719C657.404 475.061 654.781 475.732 651.894 475.732ZM651.894 468.961C653.927 468.961 655.696 468.209 657.201 466.704C658.706 465.159 659.458 462.881 659.458 459.872C659.458 456.863 658.706 454.606 657.201 453.101C655.696 451.556 653.948 450.783 651.955 450.783C649.881 450.783 648.092 451.556 646.587 453.101C645.123 454.606 644.391 456.863 644.391 459.872C644.391 462.881 645.123 465.159 646.587 466.704C648.092 468.209 649.861 468.961 651.894 468.961Z" fill="url(#paint1_angular_1735_36)"/>
<path d="M703.666 475.732C700.535 475.732 697.77 475.203 695.37 474.146C692.971 473.048 691.08 471.503 689.697 469.51C688.315 467.477 687.603 465.016 687.562 462.129H695.797C695.879 464.122 696.59 465.809 697.932 467.192C699.315 468.534 701.206 469.205 703.605 469.205C705.679 469.205 707.326 468.717 708.546 467.741C709.766 466.724 710.376 465.382 710.376 463.715C710.376 461.966 709.827 460.604 708.729 459.628C707.672 458.652 706.249 457.859 704.459 457.249C702.67 456.639 700.759 455.988 698.725 455.297C695.431 454.158 692.91 452.694 691.161 450.905C689.453 449.116 688.599 446.737 688.599 443.768C688.559 441.247 689.148 439.091 690.368 437.302C691.629 435.472 693.337 434.069 695.492 433.093C697.648 432.076 700.128 431.568 702.934 431.568C705.781 431.568 708.282 432.076 710.437 433.093C712.633 434.11 714.341 435.533 715.561 437.363C716.822 439.193 717.493 441.369 717.574 443.89H709.217C709.177 442.385 708.587 441.064 707.448 439.925C706.35 438.746 704.805 438.156 702.812 438.156C701.104 438.115 699.661 438.542 698.481 439.437C697.343 440.291 696.773 441.552 696.773 443.219C696.773 444.642 697.221 445.781 698.115 446.635C699.01 447.448 700.23 448.14 701.775 448.709C703.321 449.278 705.09 449.888 707.082 450.539C709.197 451.271 711.129 452.125 712.877 453.101C714.626 454.077 716.029 455.378 717.086 457.005C718.144 458.591 718.672 460.645 718.672 463.166C718.672 465.403 718.103 467.477 716.964 469.388C715.826 471.299 714.138 472.845 711.901 474.024C709.665 475.163 706.92 475.732 703.666 475.732ZM738.783 475C735.611 475 733.069 474.227 731.158 472.682C729.247 471.137 728.291 468.392 728.291 464.447V451.271H723.106V444.744H728.291L729.206 436.631H736.099V444.744H744.273V451.271H736.099V464.508C736.099 465.972 736.404 466.989 737.014 467.558C737.665 468.087 738.763 468.351 740.308 468.351H744.09V475H738.783ZM764.72 475.732C761.792 475.732 759.149 475.061 756.79 473.719C754.472 472.377 752.622 470.527 751.239 468.168C749.897 465.769 749.226 463.003 749.226 459.872C749.226 456.741 749.918 453.996 751.3 451.637C752.683 449.238 754.533 447.367 756.851 446.025C759.21 444.683 761.853 444.012 764.781 444.012C767.669 444.012 770.271 444.683 772.589 446.025C774.948 447.367 776.798 449.238 778.14 451.637C779.523 453.996 780.214 456.741 780.214 459.872C780.214 463.003 779.523 465.769 778.14 468.168C776.798 470.527 774.948 472.377 772.589 473.719C770.231 475.061 767.608 475.732 764.72 475.732ZM764.72 468.961C766.754 468.961 768.523 468.209 770.027 466.704C771.532 465.159 772.284 462.881 772.284 459.872C772.284 456.863 771.532 454.606 770.027 453.101C768.523 451.556 766.774 450.783 764.781 450.783C762.707 450.783 760.918 451.556 759.413 453.101C757.949 454.606 757.217 456.863 757.217 459.872C757.217 462.881 757.949 465.159 759.413 466.704C760.918 468.209 762.687 468.961 764.72 468.961ZM787.195 475V444.744H794.149L794.881 450.417C795.979 448.465 797.464 446.92 799.334 445.781C801.246 444.602 803.482 444.012 806.044 444.012V452.247H803.848C802.14 452.247 800.615 452.511 799.273 453.04C797.931 453.569 796.874 454.484 796.101 455.785C795.369 457.086 795.003 458.896 795.003 461.214V475H787.195ZM821.812 475.732C819.209 475.732 817.074 475.325 815.407 474.512C813.74 473.658 812.499 472.54 811.686 471.157C810.873 469.774 810.466 468.249 810.466 466.582C810.466 463.776 811.564 461.499 813.76 459.75C815.956 458.001 819.25 457.127 823.642 457.127H831.328V456.395C831.328 454.321 830.738 452.796 829.559 451.82C828.38 450.844 826.916 450.356 825.167 450.356C823.581 450.356 822.198 450.742 821.019 451.515C819.84 452.247 819.108 453.345 818.823 454.809H811.198C811.401 452.613 812.133 450.702 813.394 449.075C814.695 447.448 816.363 446.208 818.396 445.354C820.429 444.459 822.707 444.012 825.228 444.012C829.539 444.012 832.934 445.09 835.415 447.245C837.896 449.4 839.136 452.45 839.136 456.395V475H832.487L831.755 470.12C830.86 471.747 829.6 473.089 827.973 474.146C826.387 475.203 824.333 475.732 821.812 475.732ZM823.581 469.632C825.818 469.632 827.546 468.9 828.766 467.436C830.027 465.972 830.82 464.162 831.145 462.007H824.496C822.422 462.007 820.938 462.393 820.043 463.166C819.148 463.898 818.701 464.813 818.701 465.911C818.701 467.09 819.148 468.005 820.043 468.656C820.938 469.307 822.117 469.632 823.581 469.632ZM859.397 465.972C857.933 465.972 856.571 465.809 855.31 465.484L853.053 467.741C853.744 468.107 854.68 468.412 855.859 468.656C857.038 468.9 858.95 469.144 861.593 469.388C865.619 469.754 868.547 470.71 870.377 472.255C872.207 473.8 873.122 475.935 873.122 478.66C873.122 480.449 872.634 482.137 871.658 483.723C870.682 485.35 869.177 486.651 867.144 487.627C865.111 488.644 862.508 489.152 859.336 489.152C855.025 489.152 851.548 488.339 848.905 486.712C846.262 485.126 844.94 482.727 844.94 479.514C844.94 476.789 846.262 474.431 848.905 472.438C848.092 472.072 847.38 471.686 846.77 471.279C846.201 470.872 845.692 470.445 845.245 469.998V468.595L850.552 462.983C848.193 460.909 847.014 458.245 847.014 454.992C847.014 452.959 847.502 451.108 848.478 449.441C849.495 447.774 850.918 446.452 852.748 445.476C854.578 444.5 856.794 444.012 859.397 444.012C861.105 444.012 862.691 444.256 864.155 444.744H875.623V449.502L870.438 449.868C871.251 451.413 871.658 453.121 871.658 454.992C871.658 457.025 871.17 458.876 870.194 460.543C869.218 462.21 867.795 463.532 865.924 464.508C864.094 465.484 861.918 465.972 859.397 465.972ZM859.397 459.994C860.983 459.994 862.284 459.567 863.301 458.713C864.358 457.859 864.887 456.639 864.887 455.053C864.887 453.467 864.358 452.247 863.301 451.393C862.284 450.539 860.983 450.112 859.397 450.112C857.73 450.112 856.388 450.539 855.371 451.393C854.354 452.247 853.846 453.467 853.846 455.053C853.846 456.639 854.354 457.859 855.371 458.713C856.388 459.567 857.73 459.994 859.397 459.994ZM852.077 478.721C852.077 480.226 852.768 481.344 854.151 482.076C855.574 482.849 857.303 483.235 859.336 483.235C861.288 483.235 862.874 482.828 864.094 482.015C865.314 481.242 865.924 480.185 865.924 478.843C865.924 477.745 865.517 476.83 864.704 476.098C863.931 475.366 862.366 474.919 860.007 474.756C858.34 474.634 856.794 474.451 855.371 474.207C854.192 474.858 853.338 475.569 852.809 476.342C852.321 477.115 852.077 477.908 852.077 478.721ZM894.826 475.732C891.776 475.732 889.072 475.081 886.713 473.78C884.354 472.479 882.504 470.649 881.162 468.29C879.82 465.931 879.149 463.207 879.149 460.116C879.149 456.985 879.8 454.199 881.101 451.759C882.443 449.319 884.273 447.428 886.591 446.086C888.95 444.703 891.715 444.012 894.887 444.012C897.856 444.012 900.479 444.663 902.756 445.964C905.033 447.265 906.802 449.055 908.063 451.332C909.364 453.569 910.015 456.07 910.015 458.835C910.015 459.282 909.995 459.75 909.954 460.238C909.954 460.726 909.934 461.234 909.893 461.763H886.896C887.059 464.122 887.872 465.972 889.336 467.314C890.841 468.656 892.65 469.327 894.765 469.327C896.351 469.327 897.673 468.981 898.73 468.29C899.828 467.558 900.641 466.623 901.17 465.484H909.1C908.531 467.395 907.575 469.144 906.233 470.73C904.932 472.275 903.305 473.495 901.353 474.39C899.442 475.285 897.266 475.732 894.826 475.732ZM894.887 450.356C892.976 450.356 891.288 450.905 889.824 452.003C888.36 453.06 887.425 454.687 887.018 456.883H902.085C901.963 454.89 901.231 453.304 899.889 452.125C898.547 450.946 896.88 450.356 894.887 450.356Z" fill="#00DC82"/>
<path d="M594.152 326.801C603.882 326.801 611.77 318.913 611.77 309.182C611.77 299.452 603.882 291.564 594.152 291.564C584.421 291.564 576.533 299.452 576.533 309.182C576.533 318.913 584.421 326.801 594.152 326.801Z" fill="#108775"/>
<path d="M594.152 236.716C603.882 236.716 611.77 228.828 611.77 219.098C611.77 209.367 603.882 201.479 594.152 201.479C584.421 201.479 576.533 209.367 576.533 219.098C576.533 228.828 584.421 236.716 594.152 236.716Z" fill="#108775"/>
<path fill-rule="evenodd" clip-rule="evenodd" d="M694.144 296.318C694.144 293.32 696.574 290.891 699.571 290.891H700.77C703.767 290.891 706.196 293.32 706.196 296.318V321.681C706.196 324.678 703.767 327.107 700.77 327.107H699.571C696.574 327.107 694.144 324.678 694.144 321.681V296.318ZM670.04 296.318C670.04 293.32 672.47 290.891 675.467 290.891H676.665C679.662 290.891 682.092 293.32 682.092 296.318V321.681C682.092 324.678 679.662 327.107 676.665 327.107H675.467C672.47 327.107 670.04 324.678 670.04 321.681V296.318ZM694.144 205.986C694.144 202.989 696.574 200.559 699.571 200.559H700.77C703.767 200.559 706.196 202.989 706.196 205.986V231.349C706.196 234.346 703.767 236.776 700.77 236.776H699.571C696.574 236.776 694.144 234.346 694.144 231.349V205.986ZM670.04 205.986C670.04 202.989 672.47 200.559 675.467 200.559H676.665C679.662 200.559 682.092 202.989 682.092 205.986V231.349C682.092 234.346 679.662 236.776 676.665 236.776H675.467C672.47 236.776 670.04 234.346 670.04 231.349V205.986Z" fill="#35495E"/>
<path fill-rule="evenodd" clip-rule="evenodd" d="M627.667 105.504C637.766 97.9696 651.675 98.1908 661.53 106.043L750.084 176.602C756.687 181.863 760.534 189.846 760.534 198.29V231.717C760.534 234.238 759.782 236.583 758.491 238.541C757.935 237.964 757.353 237.41 756.748 236.88C753.734 234.245 750.194 232.283 746.363 231.122C742.913 230.077 739.298 229.705 735.714 230.021V198.29C735.714 197.403 735.311 196.565 734.617 196.013L646.063 125.454C645.029 124.629 643.568 124.606 642.508 125.397L546.296 197.178C545.56 197.728 545.126 198.592 545.126 199.511V250.658C545.126 252.266 546.429 253.569 548.037 253.569H732.803C748.118 253.569 760.534 265.984 760.534 281.299V336.453C760.534 351.768 748.118 364.184 732.803 364.184H547.73C532.415 364.184 520 351.768 520 336.453V299.128C520 296.873 520.602 294.758 521.653 292.935C522.561 294.068 523.558 295.132 524.636 296.117C527.591 298.817 531.088 300.856 534.893 302.099C538.098 303.147 541.46 303.609 544.819 303.469V336.453C544.819 338.061 546.123 339.364 547.73 339.364H732.803C734.411 339.364 735.714 338.061 735.714 336.453V281.299C735.714 279.692 734.411 278.388 732.803 278.388H548.037C532.722 278.388 520.306 265.973 520.306 250.658V199.511C520.306 190.758 524.439 182.519 531.455 177.285L627.667 105.504Z" fill="#00DC82"/>
<defs>
<radialGradient id="paint0_radial_1735_36" cx="0" cy="0" r="1" gradientUnits="userSpaceOnUse" gradientTransform="translate(640 -1.85752e-05) rotate(90) scale(399 869.777)">
<stop stop-color="#02473E"/>
<stop offset="1" stop-color="#020420"/>
</radialGradient>
<radialGradient id="paint1_angular_1735_36" cx="0" cy="0" r="1" gradientUnits="userSpaceOnUse" gradientTransform="translate(603.5 462) rotate(107.526) scale(19.9249 27.8947)">
<stop offset="0.111982" stop-color="#53B8F4"/>
<stop offset="0.325" stop-color="#F675B8"/>
<stop offset="0.615" stop-color="#FCB5BF"/>
<stop offset="0.760302" stop-color="#B5D3F8"/>
</radialGradient>
</defs>
</svg>
