<svg width="1280" height="640" viewBox="0 0 1280 640" fill="none" xmlns="http://www.w3.org/2000/svg">
<rect width="1280" height="640" rx="60" fill="url(#paint0_radial_1735_36)"/>
<path d="M326.414 542V521H339.764V523.58H329.594V530.12H338.864V532.64H329.594V539.42H339.764V542H326.414ZM348.473 542.36C347.213 542.36 346.173 542.15 345.353 541.73C344.533 541.31 343.923 540.76 343.523 540.08C343.123 539.38 342.923 538.62 342.923 537.8C342.923 536.36 343.483 535.22 344.603 534.38C345.723 533.54 347.323 533.12 349.403 533.12H353.303V532.85C353.303 531.69 352.983 530.82 352.343 530.24C351.723 529.66 350.913 529.37 349.913 529.37C349.033 529.37 348.263 529.59 347.603 530.03C346.963 530.45 346.573 531.08 346.433 531.92H343.253C343.353 530.84 343.713 529.92 344.333 529.16C344.973 528.38 345.773 527.79 346.733 527.39C347.713 526.97 348.783 526.76 349.943 526.76C352.023 526.76 353.633 527.31 354.773 528.41C355.913 529.49 356.483 530.97 356.483 532.85V542H353.723L353.453 539.45C353.033 540.27 352.423 540.96 351.623 541.52C350.823 542.08 349.773 542.36 348.473 542.36ZM349.103 539.78C349.963 539.78 350.683 539.58 351.263 539.18C351.863 538.76 352.323 538.21 352.643 537.53C352.983 536.85 353.193 536.1 353.273 535.28H349.733C348.473 535.28 347.573 535.5 347.033 535.94C346.513 536.38 346.253 536.93 346.253 537.59C346.253 538.27 346.503 538.81 347.003 539.21C347.523 539.59 348.223 539.78 349.103 539.78ZM366.131 542.36C364.251 542.36 362.701 541.9 361.481 540.98C360.261 540.06 359.561 538.84 359.381 537.32H362.591C362.751 538 363.131 538.59 363.731 539.09C364.331 539.57 365.121 539.81 366.101 539.81C367.061 539.81 367.761 539.61 368.201 539.21C368.641 538.81 368.861 538.35 368.861 537.83C368.861 537.07 368.551 536.56 367.931 536.3C367.331 536.02 366.491 535.77 365.411 535.55C364.571 535.37 363.731 535.13 362.891 534.83C362.071 534.53 361.381 534.11 360.821 533.57C360.281 533.01 360.011 532.26 360.011 531.32C360.011 530.02 360.511 528.94 361.511 528.08C362.511 527.2 363.911 526.76 365.711 526.76C367.371 526.76 368.711 527.16 369.731 527.96C370.771 528.76 371.381 529.89 371.561 531.35H368.501C368.401 530.71 368.101 530.21 367.601 529.85C367.121 529.49 366.471 529.31 365.651 529.31C364.851 529.31 364.231 529.48 363.791 529.82C363.351 530.14 363.131 530.56 363.131 531.08C363.131 531.6 363.431 532.01 364.031 532.31C364.651 532.61 365.461 532.88 366.461 533.12C367.461 533.34 368.381 533.6 369.221 533.9C370.081 534.18 370.771 534.6 371.291 535.16C371.811 535.72 372.071 536.54 372.071 537.62C372.091 538.98 371.561 540.11 370.481 541.01C369.421 541.91 367.971 542.36 366.131 542.36ZM376.55 548.6L380.12 540.77H379.25L373.37 527.12H376.82L381.38 538.13L386.15 527.12H389.51L379.91 548.6H376.55ZM405.623 542.36C403.743 542.36 402.193 541.9 400.973 540.98C399.753 540.06 399.053 538.84 398.873 537.32H402.083C402.243 538 402.623 538.59 403.223 539.09C403.823 539.57 404.613 539.81 405.593 539.81C406.553 539.81 407.253 539.61 407.693 539.21C408.133 538.81 408.353 538.35 408.353 537.83C408.353 537.07 408.043 536.56 407.423 536.3C406.823 536.02 405.983 535.77 404.903 535.55C404.063 535.37 403.223 535.13 402.383 534.83C401.563 534.53 400.873 534.11 400.313 533.57C399.773 533.01 399.503 532.26 399.503 531.32C399.503 530.02 400.003 528.94 401.003 528.08C402.003 527.2 403.403 526.76 405.203 526.76C406.863 526.76 408.203 527.16 409.223 527.96C410.263 528.76 410.873 529.89 411.053 531.35H407.993C407.893 530.71 407.593 530.21 407.093 529.85C406.613 529.49 405.963 529.31 405.143 529.31C404.343 529.31 403.723 529.48 403.283 529.82C402.843 530.14 402.623 530.56 402.623 531.08C402.623 531.6 402.923 532.01 403.523 532.31C404.143 532.61 404.953 532.88 405.953 533.12C406.953 533.34 407.873 533.6 408.713 533.9C409.573 534.18 410.263 534.6 410.783 535.16C411.303 535.72 411.563 536.54 411.563 537.62C411.583 538.98 411.053 540.11 409.973 541.01C408.913 541.91 407.463 542.36 405.623 542.36ZM421.994 542.36C420.574 542.36 419.294 542.04 418.154 541.4C417.034 540.74 416.144 539.83 415.484 538.67C414.824 537.49 414.494 536.12 414.494 534.56C414.494 533 414.824 531.64 415.484 530.48C416.164 529.3 417.074 528.39 418.214 527.75C419.354 527.09 420.624 526.76 422.024 526.76C423.444 526.76 424.714 527.09 425.834 527.75C426.974 528.39 427.874 529.3 428.534 530.48C429.214 531.64 429.554 533 429.554 534.56C429.554 536.12 429.214 537.49 428.534 538.67C427.874 539.83 426.974 540.74 425.834 541.4C424.694 542.04 423.414 542.36 421.994 542.36ZM421.994 539.63C422.754 539.63 423.454 539.44 424.094 539.06C424.754 538.68 425.284 538.12 425.684 537.38C426.084 536.62 426.284 535.68 426.284 534.56C426.284 533.44 426.084 532.51 425.684 531.77C425.304 531.01 424.784 530.44 424.124 530.06C423.484 529.68 422.784 529.49 422.024 529.49C421.264 529.49 420.554 529.68 419.894 530.06C419.254 530.44 418.734 531.01 418.334 531.77C417.934 532.51 417.734 533.44 417.734 534.56C417.734 535.68 417.934 536.62 418.334 537.38C418.734 538.12 419.254 538.68 419.894 539.06C420.534 539.44 421.234 539.63 421.994 539.63ZM432.993 542V520.4H436.173V542H432.993ZM445.69 542.36C443.89 542.36 442.47 541.8 441.43 540.68C440.41 539.56 439.9 537.89 439.9 535.67V527.12H443.08V535.34C443.08 538.22 444.26 539.66 446.62 539.66C447.8 539.66 448.77 539.24 449.53 538.4C450.29 537.56 450.67 536.36 450.67 534.8V527.12H453.85V542H451.03L450.79 539.39C450.33 540.31 449.65 541.04 448.75 541.58C447.87 542.1 446.85 542.36 445.69 542.36ZM464.136 542C462.676 542 461.516 541.65 460.656 540.95C459.796 540.23 459.366 538.96 459.366 537.14V529.79H456.816V527.12H459.366L459.756 523.34H462.546V527.12H466.746V529.79H462.546V537.14C462.546 537.96 462.716 538.53 463.056 538.85C463.416 539.15 464.026 539.3 464.886 539.3H466.596V542H464.136ZM471.825 524.3C471.225 524.3 470.725 524.12 470.325 523.76C469.945 523.38 469.755 522.91 469.755 522.35C469.755 521.79 469.945 521.33 470.325 520.97C470.725 520.59 471.225 520.4 471.825 520.4C472.425 520.4 472.915 520.59 473.295 520.97C473.695 521.33 473.895 521.79 473.895 522.35C473.895 522.91 473.695 523.38 473.295 523.76C472.915 524.12 472.425 524.3 471.825 524.3ZM470.235 542V527.12H473.415V542H470.235ZM484.573 542.36C483.153 542.36 481.873 542.04 480.733 541.4C479.613 540.74 478.723 539.83 478.063 538.67C477.403 537.49 477.073 536.12 477.073 534.56C477.073 533 477.403 531.64 478.063 530.48C478.743 529.3 479.653 528.39 480.793 527.75C481.933 527.09 483.203 526.76 484.603 526.76C486.023 526.76 487.293 527.09 488.413 527.75C489.553 528.39 490.453 529.3 491.113 530.48C491.793 531.64 492.133 533 492.133 534.56C492.133 536.12 491.793 537.49 491.113 538.67C490.453 539.83 489.553 540.74 488.413 541.4C487.273 542.04 485.993 542.36 484.573 542.36ZM484.573 539.63C485.333 539.63 486.033 539.44 486.673 539.06C487.333 538.68 487.863 538.12 488.263 537.38C488.663 536.62 488.863 535.68 488.863 534.56C488.863 533.44 488.663 532.51 488.263 531.77C487.883 531.01 487.363 530.44 486.703 530.06C486.063 529.68 485.363 529.49 484.603 529.49C483.843 529.49 483.133 529.68 482.473 530.06C481.833 530.44 481.313 531.01 480.913 531.77C480.513 532.51 480.313 533.44 480.313 534.56C480.313 535.68 480.513 536.62 480.913 537.38C481.313 538.12 481.833 538.68 482.473 539.06C483.113 539.44 483.813 539.63 484.573 539.63ZM495.572 542V527.12H498.392L498.632 529.73C499.092 528.81 499.762 528.09 500.642 527.57C501.542 527.03 502.572 526.76 503.732 526.76C505.532 526.76 506.942 527.32 507.962 528.44C509.002 529.56 509.522 531.23 509.522 533.45V542H506.372V533.78C506.372 530.9 505.192 529.46 502.832 529.46C501.652 529.46 500.672 529.88 499.892 530.72C499.132 531.56 498.752 532.76 498.752 534.32V542H495.572ZM527.065 542C525.605 542 524.445 541.65 523.585 540.95C522.725 540.23 522.295 538.96 522.295 537.14V529.79H519.745V527.12H522.295L522.685 523.34H525.475V527.12H529.675V529.79H525.475V537.14C525.475 537.96 525.645 538.53 525.985 538.85C526.345 539.15 526.955 539.3 527.815 539.3H529.525V542H527.065ZM539.533 542.36C538.113 542.36 536.833 542.04 535.693 541.4C534.573 540.74 533.683 539.83 533.023 538.67C532.363 537.49 532.033 536.12 532.033 534.56C532.033 533 532.363 531.64 533.023 530.48C533.703 529.3 534.613 528.39 535.753 527.75C536.893 527.09 538.163 526.76 539.563 526.76C540.983 526.76 542.253 527.09 543.373 527.75C544.513 528.39 545.413 529.3 546.073 530.48C546.753 531.64 547.093 533 547.093 534.56C547.093 536.12 546.753 537.49 546.073 538.67C545.413 539.83 544.513 540.74 543.373 541.4C542.233 542.04 540.953 542.36 539.533 542.36ZM539.533 539.63C540.293 539.63 540.993 539.44 541.633 539.06C542.293 538.68 542.823 538.12 543.223 537.38C543.623 536.62 543.823 535.68 543.823 534.56C543.823 533.44 543.623 532.51 543.223 531.77C542.843 531.01 542.323 530.44 541.663 530.06C541.023 529.68 540.323 529.49 539.563 529.49C538.803 529.49 538.093 529.68 537.433 530.06C536.793 530.44 536.273 531.01 535.873 531.77C535.473 532.51 535.273 533.44 535.273 534.56C535.273 535.68 535.473 536.62 535.873 537.38C536.273 538.12 536.793 538.68 537.433 539.06C538.073 539.44 538.773 539.63 539.533 539.63ZM564.031 542.36C562.151 542.36 560.601 541.9 559.381 540.98C558.161 540.06 557.461 538.84 557.281 537.32H560.491C560.651 538 561.031 538.59 561.631 539.09C562.231 539.57 563.021 539.81 564.001 539.81C564.961 539.81 565.661 539.61 566.101 539.21C566.541 538.81 566.761 538.35 566.761 537.83C566.761 537.07 566.451 536.56 565.831 536.3C565.231 536.02 564.391 535.77 563.311 535.55C562.471 535.37 561.631 535.13 560.791 534.83C559.971 534.53 559.281 534.11 558.721 533.57C558.181 533.01 557.911 532.26 557.911 531.32C557.911 530.02 558.411 528.94 559.411 528.08C560.411 527.2 561.811 526.76 563.611 526.76C565.271 526.76 566.611 527.16 567.631 527.96C568.671 528.76 569.281 529.89 569.461 531.35H566.401C566.301 530.71 566.001 530.21 565.501 529.85C565.021 529.49 564.371 529.31 563.551 529.31C562.751 529.31 562.131 529.48 561.691 529.82C561.251 530.14 561.031 530.56 561.031 531.08C561.031 531.6 561.331 532.01 561.931 532.31C562.551 532.61 563.361 532.88 564.361 533.12C565.361 533.34 566.281 533.6 567.121 533.9C567.981 534.18 568.671 534.6 569.191 535.16C569.711 535.72 569.971 536.54 569.971 537.62C569.991 538.98 569.461 540.11 568.381 541.01C567.321 541.91 565.871 542.36 564.031 542.36ZM579.126 542C577.666 542 576.506 541.65 575.646 540.95C574.786 540.23 574.356 538.96 574.356 537.14V529.79H571.806V527.12H574.356L574.746 523.34H577.536V527.12H581.736V529.79H577.536V537.14C577.536 537.96 577.706 538.53 578.046 538.85C578.406 539.15 579.016 539.3 579.876 539.3H581.586V542H579.126ZM591.594 542.36C590.174 542.36 588.894 542.04 587.754 541.4C586.634 540.74 585.744 539.83 585.084 538.67C584.424 537.49 584.094 536.12 584.094 534.56C584.094 533 584.424 531.64 585.084 530.48C585.764 529.3 586.674 528.39 587.814 527.75C588.954 527.09 590.224 526.76 591.624 526.76C593.044 526.76 594.314 527.09 595.434 527.75C596.574 528.39 597.474 529.3 598.134 530.48C598.814 531.64 599.154 533 599.154 534.56C599.154 536.12 598.814 537.49 598.134 538.67C597.474 539.83 596.574 540.74 595.434 541.4C594.294 542.04 593.014 542.36 591.594 542.36ZM591.594 539.63C592.354 539.63 593.054 539.44 593.694 539.06C594.354 538.68 594.884 538.12 595.284 537.38C595.684 536.62 595.884 535.68 595.884 534.56C595.884 533.44 595.684 532.51 595.284 531.77C594.904 531.01 594.384 530.44 593.724 530.06C593.084 529.68 592.384 529.49 591.624 529.49C590.864 529.49 590.154 529.68 589.494 530.06C588.854 530.44 588.334 531.01 587.934 531.77C587.534 532.51 587.334 533.44 587.334 534.56C587.334 535.68 587.534 536.62 587.934 537.38C588.334 538.12 588.854 538.68 589.494 539.06C590.134 539.44 590.834 539.63 591.594 539.63ZM602.593 542V527.12H605.443L605.713 529.94C606.233 528.96 606.953 528.19 607.873 527.63C608.813 527.05 609.943 526.76 611.263 526.76V530.09H610.393C609.513 530.09 608.723 530.24 608.023 530.54C607.343 530.82 606.793 531.31 606.373 532.01C605.973 532.69 605.773 533.64 605.773 534.86V542H602.593ZM620.539 542.36C619.079 542.36 617.779 542.04 616.639 541.4C615.519 540.74 614.639 539.83 613.999 538.67C613.359 537.51 613.039 536.16 613.039 534.62C613.039 533.06 613.349 531.69 613.969 530.51C614.609 529.33 615.489 528.41 616.609 527.75C617.749 527.09 619.069 526.76 620.569 526.76C622.029 526.76 623.299 527.09 624.379 527.75C625.459 528.39 626.299 529.25 626.899 530.33C627.499 531.41 627.799 532.6 627.799 533.9C627.799 534.1 627.789 534.32 627.769 534.56C627.769 534.78 627.759 535.03 627.739 535.31H616.159C616.259 536.75 616.729 537.85 617.569 538.61C618.429 539.35 619.419 539.72 620.539 539.72C621.439 539.72 622.189 539.52 622.789 539.12C623.409 538.7 623.869 538.14 624.169 537.44H627.349C626.949 538.84 626.149 540.01 624.949 540.95C623.769 541.89 622.299 542.36 620.539 542.36ZM620.539 529.37C619.479 529.37 618.539 529.69 617.719 530.33C616.899 530.95 616.399 531.89 616.219 533.15H624.619C624.559 531.99 624.149 531.07 623.389 530.39C622.629 529.71 621.679 529.37 620.539 529.37ZM639.407 542V529.79H637.277V527.12H639.407V524.96C639.407 523.34 639.807 522.18 640.607 521.48C641.427 520.76 642.577 520.4 644.057 520.4H645.617V523.1H644.537C643.837 523.1 643.337 523.25 643.037 523.55C642.737 523.83 642.587 524.31 642.587 524.99V527.12H652.007V542H648.827V529.79H642.587V542H639.407ZM650.447 524.63C649.847 524.63 649.347 524.45 648.947 524.09C648.567 523.71 648.377 523.23 648.377 522.65C648.377 522.09 648.567 521.63 648.947 521.27C649.347 520.91 649.847 520.73 650.447 520.73C651.047 520.73 651.537 520.91 651.917 521.27C652.317 521.63 652.517 522.09 652.517 522.65C652.517 523.23 652.317 523.71 651.917 524.09C651.537 524.45 651.047 524.63 650.447 524.63ZM656.236 542V520.4H659.416V542H656.236ZM670.403 542.36C668.943 542.36 667.643 542.04 666.503 541.4C665.383 540.74 664.503 539.83 663.863 538.67C663.223 537.51 662.903 536.16 662.903 534.62C662.903 533.06 663.213 531.69 663.833 530.51C664.473 529.33 665.353 528.41 666.473 527.75C667.613 527.09 668.933 526.76 670.433 526.76C671.893 526.76 673.163 527.09 674.243 527.75C675.323 528.39 676.163 529.25 676.763 530.33C677.363 531.41 677.663 532.6 677.663 533.9C677.663 534.1 677.653 534.32 677.633 534.56C677.633 534.78 677.623 535.03 677.603 535.31H666.023C666.123 536.75 666.593 537.85 667.433 538.61C668.293 539.35 669.283 539.72 670.403 539.72C671.303 539.72 672.053 539.52 672.653 539.12C673.273 538.7 673.733 538.14 674.033 537.44H677.213C676.813 538.84 676.013 540.01 674.813 540.95C673.633 541.89 672.163 542.36 670.403 542.36ZM670.403 529.37C669.343 529.37 668.403 529.69 667.583 530.33C666.763 530.95 666.263 531.89 666.083 533.15H674.483C674.423 531.99 674.013 531.07 673.253 530.39C672.493 529.71 671.543 529.37 670.403 529.37ZM686.902 542.36C685.022 542.36 683.472 541.9 682.252 540.98C681.032 540.06 680.332 538.84 680.152 537.32H683.362C683.522 538 683.902 538.59 684.502 539.09C685.102 539.57 685.892 539.81 686.872 539.81C687.832 539.81 688.532 539.61 688.972 539.21C689.412 538.81 689.632 538.35 689.632 537.83C689.632 537.07 689.322 536.56 688.702 536.3C688.102 536.02 687.262 535.77 686.182 535.55C685.342 535.37 684.502 535.13 683.662 534.83C682.842 534.53 682.152 534.11 681.592 533.57C681.052 533.01 680.782 532.26 680.782 531.32C680.782 530.02 681.282 528.94 682.282 528.08C683.282 527.2 684.682 526.76 686.482 526.76C688.142 526.76 689.482 527.16 690.502 527.96C691.542 528.76 692.152 529.89 692.332 531.35H689.272C689.172 530.71 688.872 530.21 688.372 529.85C687.892 529.49 687.242 529.31 686.422 529.31C685.622 529.31 685.002 529.48 684.562 529.82C684.122 530.14 683.902 530.56 683.902 531.08C683.902 531.6 684.202 532.01 684.802 532.31C685.422 532.61 686.232 532.88 687.232 533.12C688.232 533.34 689.152 533.6 689.992 533.9C690.852 534.18 691.542 534.6 692.062 535.16C692.582 535.72 692.842 536.54 692.842 537.62C692.862 538.98 692.332 540.11 691.252 541.01C690.192 541.91 688.742 542.36 686.902 542.36ZM705.672 524.3C705.072 524.3 704.572 524.12 704.172 523.76C703.792 523.38 703.602 522.91 703.602 522.35C703.602 521.79 703.792 521.33 704.172 520.97C704.572 520.59 705.072 520.4 705.672 520.4C706.272 520.4 706.762 520.59 707.142 520.97C707.542 521.33 707.742 521.79 707.742 522.35C707.742 522.91 707.542 523.38 707.142 523.76C706.762 524.12 706.272 524.3 705.672 524.3ZM704.082 542V527.12H707.262V542H704.082ZM711.46 542V527.12H714.28L714.52 529.73C714.98 528.81 715.65 528.09 716.53 527.57C717.43 527.03 718.46 526.76 719.62 526.76C721.42 526.76 722.83 527.32 723.85 528.44C724.89 529.56 725.41 531.23 725.41 533.45V542H722.26V533.78C722.26 530.9 721.08 529.46 718.72 529.46C717.54 529.46 716.56 529.88 715.78 530.72C715.02 531.56 714.64 532.76 714.64 534.32V542H711.46ZM738.454 548.6L742.024 540.77H741.154L735.274 527.12H738.724L743.284 538.13L748.054 527.12H751.414L741.814 548.6H738.454ZM759.641 542.36C758.221 542.36 756.941 542.04 755.801 541.4C754.681 540.74 753.791 539.83 753.131 538.67C752.471 537.49 752.141 536.12 752.141 534.56C752.141 533 752.471 531.64 753.131 530.48C753.811 529.3 754.721 528.39 755.861 527.75C757.001 527.09 758.271 526.76 759.671 526.76C761.091 526.76 762.361 527.09 763.481 527.75C764.621 528.39 765.521 529.3 766.181 530.48C766.861 531.64 767.201 533 767.201 534.56C767.201 536.12 766.861 537.49 766.181 538.67C765.521 539.83 764.621 540.74 763.481 541.4C762.341 542.04 761.061 542.36 759.641 542.36ZM759.641 539.63C760.401 539.63 761.101 539.44 761.741 539.06C762.401 538.68 762.931 538.12 763.331 537.38C763.731 536.62 763.931 535.68 763.931 534.56C763.931 533.44 763.731 532.51 763.331 531.77C762.951 531.01 762.431 530.44 761.771 530.06C761.131 529.68 760.431 529.49 759.671 529.49C758.911 529.49 758.201 529.68 757.541 530.06C756.901 530.44 756.381 531.01 755.981 531.77C755.581 532.51 755.381 533.44 755.381 534.56C755.381 535.68 755.581 536.62 755.981 537.38C756.381 538.12 756.901 538.68 757.541 539.06C758.181 539.44 758.881 539.63 759.641 539.63ZM776.13 542.36C774.33 542.36 772.91 541.8 771.87 540.68C770.85 539.56 770.34 537.89 770.34 535.67V527.12H773.52V535.34C773.52 538.22 774.7 539.66 777.06 539.66C778.24 539.66 779.21 539.24 779.97 538.4C780.73 537.56 781.11 536.36 781.11 534.8V527.12H784.29V542H781.47L781.23 539.39C780.77 540.31 780.09 541.04 779.19 541.58C778.31 542.1 777.29 542.36 776.13 542.36ZM788.335 542V527.12H791.185L791.455 529.94C791.975 528.96 792.695 528.19 793.615 527.63C794.555 527.05 795.685 526.76 797.005 526.76V530.09H796.135C795.255 530.09 794.465 530.24 793.765 530.54C793.085 530.82 792.535 531.31 792.115 532.01C791.715 532.69 791.515 533.64 791.515 534.86V542H788.335ZM807.41 542V521H810.59L821.12 536.81V521H824.3V542H821.12L810.59 526.19V542H807.41ZM833.933 542.36C832.133 542.36 830.713 541.8 829.673 540.68C828.653 539.56 828.143 537.89 828.143 535.67V527.12H831.323V535.34C831.323 538.22 832.503 539.66 834.863 539.66C836.043 539.66 837.013 539.24 837.773 538.4C838.533 537.56 838.913 536.36 838.913 534.8V527.12H842.093V542H839.273L839.033 539.39C838.573 540.31 837.893 541.04 836.993 541.58C836.113 542.1 835.093 542.36 833.933 542.36ZM844.698 542L849.978 534.56L844.698 527.12H848.088L852.078 532.82L856.038 527.12H859.458L854.178 534.56L859.458 542H856.038L852.078 536.3L848.088 542H844.698ZM868.286 542C866.826 542 865.666 541.65 864.806 540.95C863.946 540.23 863.516 538.96 863.516 537.14V529.79H860.966V527.12H863.516L863.906 523.34H866.696V527.12H870.896V529.79H866.696V537.14C866.696 537.96 866.866 538.53 867.206 538.85C867.566 539.15 868.176 539.3 869.036 539.3H870.746V542H868.286ZM886.774 542.36C885.514 542.36 884.474 542.15 883.654 541.73C882.834 541.31 882.224 540.76 881.824 540.08C881.424 539.38 881.224 538.62 881.224 537.8C881.224 536.36 881.784 535.22 882.904 534.38C884.024 533.54 885.624 533.12 887.704 533.12H891.604V532.85C891.604 531.69 891.284 530.82 890.644 530.24C890.024 529.66 889.214 529.37 888.214 529.37C887.334 529.37 886.564 529.59 885.904 530.03C885.264 530.45 884.874 531.08 884.734 531.92H881.554C881.654 530.84 882.014 529.92 882.634 529.16C883.274 528.38 884.074 527.79 885.034 527.39C886.014 526.97 887.084 526.76 888.244 526.76C890.324 526.76 891.934 527.31 893.074 528.41C894.214 529.49 894.784 530.97 894.784 532.85V542H892.024L891.754 539.45C891.334 540.27 890.724 540.96 889.924 541.52C889.124 542.08 888.074 542.36 886.774 542.36ZM887.404 539.78C888.264 539.78 888.984 539.58 889.564 539.18C890.164 538.76 890.624 538.21 890.944 537.53C891.284 536.85 891.494 536.1 891.574 535.28H888.034C886.774 535.28 885.874 535.5 885.334 535.94C884.814 536.38 884.554 536.93 884.554 537.59C884.554 538.27 884.804 538.81 885.304 539.21C885.824 539.59 886.524 539.78 887.404 539.78ZM898.491 548.6V527.12H901.341L901.671 529.43C902.151 528.73 902.811 528.11 903.651 527.57C904.491 527.03 905.571 526.76 906.891 526.76C908.331 526.76 909.601 527.1 910.701 527.78C911.801 528.46 912.661 529.39 913.281 530.57C913.921 531.75 914.241 533.09 914.241 534.59C914.241 536.09 913.921 537.43 913.281 538.61C912.661 539.77 911.801 540.69 910.701 541.37C909.601 542.03 908.321 542.36 906.861 542.36C905.701 542.36 904.671 542.13 903.771 541.67C902.891 541.21 902.191 540.56 901.671 539.72V548.6H898.491ZM906.321 539.6C907.681 539.6 908.801 539.14 909.681 538.22C910.561 537.28 911.001 536.06 911.001 534.56C911.001 533.58 910.801 532.71 910.401 531.95C910.001 531.19 909.451 530.6 908.751 530.18C908.051 529.74 907.241 529.52 906.321 529.52C904.961 529.52 903.841 529.99 902.961 530.93C902.101 531.87 901.671 533.08 901.671 534.56C901.671 536.06 902.101 537.28 902.961 538.22C903.841 539.14 904.961 539.6 906.321 539.6ZM917.681 548.6V527.12H920.531L920.861 529.43C921.341 528.73 922.001 528.11 922.841 527.57C923.681 527.03 924.761 526.76 926.081 526.76C927.521 526.76 928.791 527.1 929.891 527.78C930.991 528.46 931.851 529.39 932.471 530.57C933.111 531.75 933.431 533.09 933.431 534.59C933.431 536.09 933.111 537.43 932.471 538.61C931.851 539.77 930.991 540.69 929.891 541.37C928.791 542.03 927.511 542.36 926.051 542.36C924.891 542.36 923.861 542.13 922.961 541.67C922.081 541.21 921.381 540.56 920.861 539.72V548.6H917.681ZM925.511 539.6C926.871 539.6 927.991 539.14 928.871 538.22C929.751 537.28 930.191 536.06 930.191 534.56C930.191 533.58 929.991 532.71 929.591 531.95C929.191 531.19 928.641 530.6 927.941 530.18C927.241 529.74 926.431 529.52 925.511 529.52C924.151 529.52 923.031 529.99 922.151 530.93C921.291 531.87 920.861 533.08 920.861 534.56C920.861 536.06 921.291 537.28 922.151 538.22C923.031 539.14 924.151 539.6 925.511 539.6ZM942.81 542.36C940.93 542.36 939.38 541.9 938.16 540.98C936.94 540.06 936.24 538.84 936.06 537.32H939.27C939.43 538 939.81 538.59 940.41 539.09C941.01 539.57 941.8 539.81 942.78 539.81C943.74 539.81 944.44 539.61 944.88 539.21C945.32 538.81 945.54 538.35 945.54 537.83C945.54 537.07 945.23 536.56 944.61 536.3C944.01 536.02 943.17 535.77 942.09 535.55C941.25 535.37 940.41 535.13 939.57 534.83C938.75 534.53 938.06 534.11 937.5 533.57C936.96 533.01 936.69 532.26 936.69 531.32C936.69 530.02 937.19 528.94 938.19 528.08C939.19 527.2 940.59 526.76 942.39 526.76C944.05 526.76 945.39 527.16 946.41 527.96C947.45 528.76 948.06 529.89 948.24 531.35H945.18C945.08 530.71 944.78 530.21 944.28 529.85C943.8 529.49 943.15 529.31 942.33 529.31C941.53 529.31 940.91 529.48 940.47 529.82C940.03 530.14 939.81 530.56 939.81 531.08C939.81 531.6 940.11 532.01 940.71 532.31C941.33 532.61 942.14 532.88 943.14 533.12C944.14 533.34 945.06 533.6 945.9 533.9C946.76 534.18 947.45 534.6 947.97 535.16C948.49 535.72 948.75 536.54 948.75 537.62C948.77 538.98 948.24 540.11 947.16 541.01C946.1 541.91 944.65 542.36 942.81 542.36ZM953.482 542.18C952.882 542.18 952.382 541.99 951.982 541.61C951.602 541.21 951.412 540.74 951.412 540.2C951.412 539.64 951.602 539.17 951.982 538.79C952.382 538.39 952.882 538.19 953.482 538.19C954.082 538.19 954.572 538.39 954.952 538.79C955.332 539.17 955.522 539.64 955.522 540.2C955.522 540.74 955.332 541.21 954.952 541.61C954.572 541.99 954.082 542.18 953.482 542.18Z" fill="#D5E8FF" fill-opacity="0.87"/>
<path d="M526.468 260.736C529.637 263.906 533.936 265.686 538.419 265.686H741.243C749.955 265.686 758.144 269.522 763.401 274.137C770.466 280.34 775.046 289.332 775.046 299.49V350.196C775.046 359.161 771.485 367.76 765.145 374.099C758.806 380.439 750.208 384 741.243 384H538.419C529.454 384 520.856 380.439 514.516 374.099C508.177 367.76 504.615 359.161 504.615 350.196V290.225C507.37 294.029 511.667 300.891 521.517 302.687V350.196C521.517 354.679 523.298 358.978 526.468 362.148C529.637 365.317 533.936 367.098 538.419 367.098H741.243C745.725 367.098 750.024 365.317 753.194 362.148C756.364 358.978 758.144 354.679 758.144 350.196V299.49C758.144 295.008 756.364 290.708 753.194 287.539C750.024 284.369 745.725 282.588 741.243 282.588H538.419C528.096 282.588 522.849 279.993 516.278 274.137C509.706 268.281 504.615 258.942 504.615 248.784V198.079C504.615 189.113 508.177 180.515 514.516 174.176L621.91 101.181C632.726 93.829 646.935 93.829 657.752 101.181L765.145 174.176C771.485 180.515 775.046 189.113 775.046 198.079V258.04C769.928 250.928 765.828 248.063 758.144 245.447V198.079C758.144 193.596 756.364 189.297 753.194 186.127L657.618 121.869C646.862 114.637 632.799 114.637 622.043 121.869L526.468 186.127C523.298 189.297 521.517 193.596 521.517 198.079V248.784C521.517 253.267 523.298 257.566 526.468 260.736Z" fill="#00DC82"/>
<path d="M580.674 350.196C594.676 350.196 606.027 338.845 606.027 324.843C606.027 310.841 594.676 299.49 580.674 299.49C566.672 299.49 555.321 310.841 555.321 324.843C555.321 338.845 566.672 350.196 580.674 350.196Z" fill="#108775"/>
<path d="M580.674 248.785C594.676 248.785 606.027 237.434 606.027 223.432C606.027 209.43 594.676 198.079 580.674 198.079C566.672 198.079 555.321 209.43 555.321 223.432C555.321 237.434 566.672 248.785 580.674 248.785Z" fill="#108775"/>
<path fill-rule="evenodd" clip-rule="evenodd" d="M707.438 307.942C707.438 303.274 711.222 299.491 715.889 299.491V299.491C720.557 299.491 724.34 303.274 724.34 307.942V341.745C724.34 346.413 720.557 350.196 715.889 350.196V350.196C711.222 350.196 707.438 346.413 707.438 341.745V307.942ZM673.635 307.942C673.635 303.274 677.418 299.491 682.085 299.491V299.491C686.753 299.491 690.536 303.274 690.536 307.942V341.745C690.536 346.413 686.753 350.196 682.085 350.196V350.196C677.418 350.196 673.635 346.413 673.635 341.745V307.942ZM707.438 206.53C707.438 201.862 711.222 198.079 715.889 198.079V198.079C720.557 198.079 724.34 201.862 724.34 206.53V240.334C724.34 245.001 720.557 248.785 715.889 248.785V248.785C711.222 248.785 707.438 245.001 707.438 240.334V206.53ZM673.635 206.53C673.635 201.862 677.418 198.079 682.085 198.079V198.079C686.753 198.079 690.536 201.862 690.536 206.53V240.334C690.536 245.001 686.753 248.785 682.085 248.785V248.785C677.418 248.785 673.635 245.001 673.635 240.334V206.53Z" fill="#2E495E"/>
<path d="M372.531 487V444.3H380.339L400.408 474.373V444.3H408.216V487H400.408L380.339 456.988V487H372.531ZM427.657 487.732C423.875 487.732 420.947 486.553 418.873 484.194C416.839 481.835 415.823 478.379 415.823 473.824V456.744H423.57V473.092C423.57 475.695 424.098 477.687 425.156 479.07C426.213 480.453 427.88 481.144 430.158 481.144C432.313 481.144 434.082 480.371 435.465 478.826C436.888 477.281 437.6 475.125 437.6 472.36V456.744H445.408V487H438.515L437.905 481.876C436.969 483.665 435.607 485.089 433.818 486.146C432.069 487.203 430.015 487.732 427.657 487.732ZM450.556 487L461.536 471.872L450.556 456.744H458.913L466.599 467.48L474.224 456.744H482.642L471.601 471.872L482.642 487H474.224L466.599 476.264L458.913 487H450.556ZM501.097 487C497.925 487 495.384 486.227 493.472 484.682C491.561 483.137 490.605 480.392 490.605 476.447V463.271H485.42V456.744H490.605L491.52 448.631H498.413V456.744H506.587V463.271H498.413V476.508C498.413 477.972 498.718 478.989 499.328 479.558C499.979 480.087 501.077 480.351 502.622 480.351H506.404V487H501.097Z" fill="white"/>
<path d="M528.009 487V444.3H535.817L555.886 474.373V444.3H563.694V487H555.886L535.817 456.988V487H528.009ZM575.998 452.047C574.575 452.047 573.396 451.62 572.46 450.766C571.566 449.912 571.118 448.834 571.118 447.533C571.118 446.232 571.566 445.174 572.46 444.361C573.396 443.507 574.575 443.08 575.998 443.08C577.422 443.08 578.581 443.507 579.475 444.361C580.411 445.174 580.878 446.232 580.878 447.533C580.878 448.834 580.411 449.912 579.475 450.766C578.581 451.62 577.422 452.047 575.998 452.047ZM572.094 487V456.744H579.902V487H572.094ZM601.533 487C598.361 487 595.819 486.227 593.908 484.682C591.997 483.137 591.041 480.392 591.041 476.447V463.271H585.856V456.744H591.041L591.956 448.631H598.849V456.744H607.023V463.271H598.849V476.508C598.849 477.972 599.154 478.989 599.764 479.558C600.415 480.087 601.513 480.351 603.058 480.351H606.84V487H601.533ZM613.727 487V456.744H620.681L621.413 462.417C622.511 460.465 623.995 458.92 625.866 457.781C627.777 456.602 630.014 456.012 632.576 456.012V464.247H630.38C628.672 464.247 627.147 464.511 625.805 465.04C624.463 465.569 623.405 466.484 622.633 467.785C621.901 469.086 621.535 470.896 621.535 473.214V487H613.727ZM651.894 487.732C648.966 487.732 646.323 487.061 643.964 485.719C641.646 484.377 639.796 482.527 638.413 480.168C637.071 477.769 636.4 475.003 636.4 471.872C636.4 468.741 637.091 465.996 638.474 463.637C639.857 461.238 641.707 459.367 644.025 458.025C646.384 456.683 649.027 456.012 651.955 456.012C654.842 456.012 657.445 456.683 659.763 458.025C662.122 459.367 663.972 461.238 665.314 463.637C666.697 465.996 667.388 468.741 667.388 471.872C667.388 475.003 666.697 477.769 665.314 480.168C663.972 482.527 662.122 484.377 659.763 485.719C657.404 487.061 654.781 487.732 651.894 487.732ZM651.894 480.961C653.927 480.961 655.696 480.209 657.201 478.704C658.706 477.159 659.458 474.881 659.458 471.872C659.458 468.863 658.706 466.606 657.201 465.101C655.696 463.556 653.948 462.783 651.955 462.783C649.881 462.783 648.092 463.556 646.587 465.101C645.123 466.606 644.391 468.863 644.391 471.872C644.391 474.881 645.123 477.159 646.587 478.704C648.092 480.209 649.861 480.961 651.894 480.961Z" fill="url(#paint1_angular_1735_36)"/>
<path d="M703.666 487.732C700.535 487.732 697.77 487.203 695.37 486.146C692.971 485.048 691.08 483.503 689.697 481.51C688.315 479.477 687.603 477.016 687.562 474.129H695.797C695.879 476.122 696.59 477.809 697.932 479.192C699.315 480.534 701.206 481.205 703.605 481.205C705.679 481.205 707.326 480.717 708.546 479.741C709.766 478.724 710.376 477.382 710.376 475.715C710.376 473.966 709.827 472.604 708.729 471.628C707.672 470.652 706.249 469.859 704.459 469.249C702.67 468.639 700.759 467.988 698.725 467.297C695.431 466.158 692.91 464.694 691.161 462.905C689.453 461.116 688.599 458.737 688.599 455.768C688.559 453.247 689.148 451.091 690.368 449.302C691.629 447.472 693.337 446.069 695.492 445.093C697.648 444.076 700.128 443.568 702.934 443.568C705.781 443.568 708.282 444.076 710.437 445.093C712.633 446.11 714.341 447.533 715.561 449.363C716.822 451.193 717.493 453.369 717.574 455.89H709.217C709.177 454.385 708.587 453.064 707.448 451.925C706.35 450.746 704.805 450.156 702.812 450.156C701.104 450.115 699.661 450.542 698.481 451.437C697.343 452.291 696.773 453.552 696.773 455.219C696.773 456.642 697.221 457.781 698.115 458.635C699.01 459.448 700.23 460.14 701.775 460.709C703.321 461.278 705.09 461.888 707.082 462.539C709.197 463.271 711.129 464.125 712.877 465.101C714.626 466.077 716.029 467.378 717.086 469.005C718.144 470.591 718.672 472.645 718.672 475.166C718.672 477.403 718.103 479.477 716.964 481.388C715.826 483.299 714.138 484.845 711.901 486.024C709.665 487.163 706.92 487.732 703.666 487.732ZM738.783 487C735.611 487 733.069 486.227 731.158 484.682C729.247 483.137 728.291 480.392 728.291 476.447V463.271H723.106V456.744H728.291L729.206 448.631H736.099V456.744H744.273V463.271H736.099V476.508C736.099 477.972 736.404 478.989 737.014 479.558C737.665 480.087 738.763 480.351 740.308 480.351H744.09V487H738.783ZM764.72 487.732C761.792 487.732 759.149 487.061 756.79 485.719C754.472 484.377 752.622 482.527 751.239 480.168C749.897 477.769 749.226 475.003 749.226 471.872C749.226 468.741 749.918 465.996 751.3 463.637C752.683 461.238 754.533 459.367 756.851 458.025C759.21 456.683 761.853 456.012 764.781 456.012C767.669 456.012 770.271 456.683 772.589 458.025C774.948 459.367 776.798 461.238 778.14 463.637C779.523 465.996 780.214 468.741 780.214 471.872C780.214 475.003 779.523 477.769 778.14 480.168C776.798 482.527 774.948 484.377 772.589 485.719C770.231 487.061 767.608 487.732 764.72 487.732ZM764.72 480.961C766.754 480.961 768.523 480.209 770.027 478.704C771.532 477.159 772.284 474.881 772.284 471.872C772.284 468.863 771.532 466.606 770.027 465.101C768.523 463.556 766.774 462.783 764.781 462.783C762.707 462.783 760.918 463.556 759.413 465.101C757.949 466.606 757.217 468.863 757.217 471.872C757.217 474.881 757.949 477.159 759.413 478.704C760.918 480.209 762.687 480.961 764.72 480.961ZM787.195 487V456.744H794.149L794.881 462.417C795.979 460.465 797.464 458.92 799.334 457.781C801.246 456.602 803.482 456.012 806.044 456.012V464.247H803.848C802.14 464.247 800.615 464.511 799.273 465.04C797.931 465.569 796.874 466.484 796.101 467.785C795.369 469.086 795.003 470.896 795.003 473.214V487H787.195ZM821.812 487.732C819.209 487.732 817.074 487.325 815.407 486.512C813.74 485.658 812.499 484.54 811.686 483.157C810.873 481.774 810.466 480.249 810.466 478.582C810.466 475.776 811.564 473.499 813.76 471.75C815.956 470.001 819.25 469.127 823.642 469.127H831.328V468.395C831.328 466.321 830.738 464.796 829.559 463.82C828.38 462.844 826.916 462.356 825.167 462.356C823.581 462.356 822.198 462.742 821.019 463.515C819.84 464.247 819.108 465.345 818.823 466.809H811.198C811.401 464.613 812.133 462.702 813.394 461.075C814.695 459.448 816.363 458.208 818.396 457.354C820.429 456.459 822.707 456.012 825.228 456.012C829.539 456.012 832.934 457.09 835.415 459.245C837.896 461.4 839.136 464.45 839.136 468.395V487H832.487L831.755 482.12C830.86 483.747 829.6 485.089 827.973 486.146C826.387 487.203 824.333 487.732 821.812 487.732ZM823.581 481.632C825.818 481.632 827.546 480.9 828.766 479.436C830.027 477.972 830.82 476.162 831.145 474.007H824.496C822.422 474.007 820.938 474.393 820.043 475.166C819.148 475.898 818.701 476.813 818.701 477.911C818.701 479.09 819.148 480.005 820.043 480.656C820.938 481.307 822.117 481.632 823.581 481.632ZM859.397 477.972C857.933 477.972 856.571 477.809 855.31 477.484L853.053 479.741C853.744 480.107 854.68 480.412 855.859 480.656C857.038 480.9 858.95 481.144 861.593 481.388C865.619 481.754 868.547 482.71 870.377 484.255C872.207 485.8 873.122 487.935 873.122 490.66C873.122 492.449 872.634 494.137 871.658 495.723C870.682 497.35 869.177 498.651 867.144 499.627C865.111 500.644 862.508 501.152 859.336 501.152C855.025 501.152 851.548 500.339 848.905 498.712C846.262 497.126 844.94 494.727 844.94 491.514C844.94 488.789 846.262 486.431 848.905 484.438C848.092 484.072 847.38 483.686 846.77 483.279C846.201 482.872 845.692 482.445 845.245 481.998V480.595L850.552 474.983C848.193 472.909 847.014 470.245 847.014 466.992C847.014 464.959 847.502 463.108 848.478 461.441C849.495 459.774 850.918 458.452 852.748 457.476C854.578 456.5 856.794 456.012 859.397 456.012C861.105 456.012 862.691 456.256 864.155 456.744H875.623V461.502L870.438 461.868C871.251 463.413 871.658 465.121 871.658 466.992C871.658 469.025 871.17 470.876 870.194 472.543C869.218 474.21 867.795 475.532 865.924 476.508C864.094 477.484 861.918 477.972 859.397 477.972ZM859.397 471.994C860.983 471.994 862.284 471.567 863.301 470.713C864.358 469.859 864.887 468.639 864.887 467.053C864.887 465.467 864.358 464.247 863.301 463.393C862.284 462.539 860.983 462.112 859.397 462.112C857.73 462.112 856.388 462.539 855.371 463.393C854.354 464.247 853.846 465.467 853.846 467.053C853.846 468.639 854.354 469.859 855.371 470.713C856.388 471.567 857.73 471.994 859.397 471.994ZM852.077 490.721C852.077 492.226 852.768 493.344 854.151 494.076C855.574 494.849 857.303 495.235 859.336 495.235C861.288 495.235 862.874 494.828 864.094 494.015C865.314 493.242 865.924 492.185 865.924 490.843C865.924 489.745 865.517 488.83 864.704 488.098C863.931 487.366 862.366 486.919 860.007 486.756C858.34 486.634 856.794 486.451 855.371 486.207C854.192 486.858 853.338 487.569 852.809 488.342C852.321 489.115 852.077 489.908 852.077 490.721ZM894.826 487.732C891.776 487.732 889.072 487.081 886.713 485.78C884.354 484.479 882.504 482.649 881.162 480.29C879.82 477.931 879.149 475.207 879.149 472.116C879.149 468.985 879.8 466.199 881.101 463.759C882.443 461.319 884.273 459.428 886.591 458.086C888.95 456.703 891.715 456.012 894.887 456.012C897.856 456.012 900.479 456.663 902.756 457.964C905.033 459.265 906.802 461.055 908.063 463.332C909.364 465.569 910.015 468.07 910.015 470.835C910.015 471.282 909.995 471.75 909.954 472.238C909.954 472.726 909.934 473.234 909.893 473.763H886.896C887.059 476.122 887.872 477.972 889.336 479.314C890.841 480.656 892.65 481.327 894.765 481.327C896.351 481.327 897.673 480.981 898.73 480.29C899.828 479.558 900.641 478.623 901.17 477.484H909.1C908.531 479.395 907.575 481.144 906.233 482.73C904.932 484.275 903.305 485.495 901.353 486.39C899.442 487.285 897.266 487.732 894.826 487.732ZM894.887 462.356C892.976 462.356 891.288 462.905 889.824 464.003C888.36 465.06 887.425 466.687 887.018 468.883H902.085C901.963 466.89 901.231 465.304 899.889 464.125C898.547 462.946 896.88 462.356 894.887 462.356Z" fill="#00DC82"/>
<defs>
<radialGradient id="paint0_radial_1735_36" cx="0" cy="0" r="1" gradientUnits="userSpaceOnUse" gradientTransform="translate(640) rotate(90) scale(367.32 800.718)">
<stop stop-color="#02473E"/>
<stop offset="0.945" stop-color="#020420"/>
</radialGradient>
<radialGradient id="paint1_angular_1735_36" cx="0" cy="0" r="1" gradientUnits="userSpaceOnUse" gradientTransform="translate(603.5 474) rotate(107.526) scale(19.9249 27.8947)">
<stop offset="0.111982" stop-color="#53B8F4"/>
<stop offset="0.325" stop-color="#F675B8"/>
<stop offset="0.615" stop-color="#FCB5BF"/>
<stop offset="0.760302" stop-color="#B5D3F8"/>
</radialGradient>
</defs>
</svg>
